<?xml version="1.0" standalone="no"?>
<!DOCTYPE svg PUBLIC "-//W3C//DTD SVG 20010904//EN"
 "http://www.w3.org/TR/2001/REC-SVG-20010904/DTD/svg10.dtd">
<svg version="1.0" xmlns="http://www.w3.org/2000/svg"
 width="1280.000000pt" height="926.000000pt" viewBox="0 0 1280.000000 926.000000"
 preserveAspectRatio="xMidYMid meet">
<metadata>
Created by potrace 1.15, written by Peter Selinger 2001-2017
</metadata>
<g transform="translate(0.000000,926.000000) scale(0.100000,-0.100000)"
fill="#000000" stroke="none">
<path d="M9806 7043 c-3 -4 -14 -7 -24 -8 -63 -6 -122 -18 -122 -25 0 -4 -9
-6 -20 -3 -14 4 -20 1 -18 -8 2 -9 -4 -13 -18 -11 -16 2 -23 -4 -28 -24 -5
-20 -12 -25 -26 -21 -11 3 -20 1 -20 -5 0 -6 -7 -8 -14 -5 -9 4 -13 1 -10 -6
2 -7 -6 -13 -23 -14 -15 0 -32 -8 -39 -17 -6 -9 -18 -16 -26 -16 -17 0 -78
-61 -78 -77 0 -7 -9 -15 -20 -18 -11 -4 -20 -15 -20 -27 0 -16 -4 -19 -25 -14
-19 5 -23 3 -19 -9 4 -9 1 -15 -7 -15 -8 0 -5 -6 7 -15 17 -13 17 -14 2 -15
-10 0 -18 -7 -18 -15 0 -8 -4 -15 -9 -15 -5 0 -12 -11 -15 -25 -6 -23 -71 -95
-86 -95 -3 0 -11 -13 -18 -29 -7 -16 -27 -47 -43 -67 -27 -34 -42 -62 -69
-129 -5 -11 -18 -65 -31 -120 -12 -55 -30 -118 -41 -140 -10 -22 -26 -67 -34
-99 -9 -33 -24 -70 -34 -83 -10 -13 -22 -38 -26 -56 -12 -56 -42 -91 -159
-185 -27 -22 -77 -62 -110 -89 -84 -69 -139 -104 -220 -142 -38 -18 -133 -64
-210 -102 -158 -78 -654 -279 -760 -310 -38 -11 -108 -31 -155 -44 -136 -39
-375 -92 -500 -110 -162 -24 -180 -30 -226 -74 -25 -24 -75 -54 -127 -76 -48
-20 -91 -43 -97 -51 -14 -16 -8 -50 8 -47 7 2 12 0 12 -5 0 -8 -120 -54 -205
-77 -58 -16 -107 -31 -415 -129 -676 -213 -673 -212 -813 -227 -56 -6 -113
-13 -127 -16 -23 -5 -24 -6 -5 -13 18 -8 18 -9 2 -9 -10 -1 -25 -7 -32 -15 -8
-8 -46 -17 -85 -21 -38 -4 -67 -11 -64 -16 3 -5 -2 -9 -11 -9 -9 0 -13 5 -10
10 3 6 0 11 -7 11 -26 3 88 27 128 28 29 1 44 6 48 17 6 15 -2 16 -71 9 -43
-5 -87 -9 -98 -10 -56 -5 -153 -17 -178 -21 -21 -5 -26 -10 -22 -24 5 -17 -2
-18 -92 -15 -54 1 -195 -1 -313 -6 -118 -5 -289 -11 -380 -13 -307 -8 -524
-28 -590 -53 -8 -4 -19 -5 -24 -4 -5 1 -28 -6 -52 -16 -36 -15 -44 -23 -44
-43 0 -19 9 -30 35 -44 19 -11 35 -23 35 -28 0 -13 63 -37 128 -49 74 -14 84
-25 31 -33 -54 -9 -129 -41 -129 -56 0 -12 439 -8 668 6 72 5 126 3 150 -4 81
-23 902 -108 1230 -127 67 -4 124 -10 126 -14 5 -7 -40 -26 -229 -99 -132 -50
-346 -115 -555 -168 -74 -19 -142 -37 -150 -41 -8 -3 -19 -5 -24 -4 -5 1 -16
-5 -25 -13 -9 -9 -35 -20 -57 -25 -34 -8 -29 -9 33 -6 42 2 73 -1 75 -6 2 -6
11 -7 21 -4 9 4 15 10 13 14 -2 3 17 7 42 7 26 1 85 9 132 18 108 22 280 47
345 51 28 2 74 6 103 10 34 4 52 3 52 -4 0 -22 44 -54 79 -59 76 -10 161 -1
221 24 19 8 49 14 65 13 44 -3 134 27 160 53 13 13 33 30 46 39 21 15 22 18 9
34 -13 15 -12 17 10 13 19 -2 26 -10 30 -34 5 -34 66 -109 90 -113 69 -9 193
-10 230 -2 36 8 47 8 56 -4 6 -9 19 -12 34 -8 17 4 21 3 16 -6 -9 -14 10 -31
64 -60 31 -17 38 -17 55 -5 23 17 39 18 29 3 -5 -8 1 -10 18 -6 19 5 28 2 32
-10 6 -15 -8 -32 -26 -33 -5 0 -8 -12 -8 -26 0 -19 4 -25 14 -21 10 4 16 -2
18 -16 3 -22 27 -31 39 -14 4 5 9 -2 13 -16 3 -13 15 -27 26 -30 24 -6 27 8 4
17 -15 6 -15 8 -2 24 8 9 18 25 21 35 9 25 34 21 33 -5 -1 -18 4 -22 22 -20
12 1 32 3 45 5 16 1 22 -3 22 -18 0 -13 6 -19 17 -17 8 1 18 -4 22 -13 4 -11
22 -15 73 -15 l68 0 -28 -19 -28 -18 30 -13 c16 -6 35 -9 41 -5 6 3 38 8 72
10 40 2 69 10 86 22 38 28 40 45 5 38 -27 -6 -26 -5 7 14 l35 20 -30 1 c-29 1
-29 2 -7 12 34 17 26 30 -13 22 -38 -7 -46 6 -20 32 8 9 15 24 15 35 0 11 7
22 15 25 11 5 13 10 5 19 -8 9 -5 14 12 19 23 6 22 6 -7 24 l-30 18 -29 -30
-29 -31 17 28 c10 16 15 31 12 35 -3 3 -6 0 -6 -7 0 -8 -7 -11 -15 -7 -9 3
-24 -4 -37 -19 -12 -14 -26 -25 -32 -25 -5 0 0 10 12 23 23 24 30 43 12 32 -6
-3 6 21 25 54 43 73 44 83 4 45 -26 -23 -29 -25 -20 -7 16 31 14 38 -6 21 -37
-31 -47 -31 -20 1 35 42 26 55 -10 16 -27 -28 -47 -19 -23 11 16 18 4 32 -12
16 -16 -16 -31 -15 -22 0 5 7 9 19 10 28 1 8 5 23 9 33 4 10 3 17 -5 17 -6 0
-2 12 10 30 21 29 16 42 -7 19 -13 -13 -33 -4 -33 15 0 21 -45 57 -63 50 -24
-9 -20 6 8 39 14 16 30 25 37 21 7 -5 8 -3 4 5 -5 7 0 21 10 32 13 15 14 19 3
20 -8 1 0 5 16 9 76 22 110 37 136 61 16 15 43 34 61 43 18 9 50 28 72 42 21
14 35 21 32 15 -4 -6 0 -11 8 -11 8 0 18 4 21 10 3 5 15 15 25 20 18 10 19 8
10 -16 -13 -33 -8 -39 19 -25 11 7 56 14 98 17 111 7 201 22 234 39 38 20 55
20 39 0 -16 -19 -7 -19 28 -1 34 18 153 36 231 36 59 0 61 -1 61 -25 0 -30 27
-43 104 -52 28 -4 61 -12 75 -20 16 -8 27 -9 29 -3 2 6 20 10 39 10 24 0 47
10 73 30 38 30 69 39 71 20 1 -5 2 -15 3 -22 1 -8 20 -12 56 -11 75 2 126 13
108 24 -13 9 20 13 68 10 11 -1 27 5 34 13 14 17 35 22 25 6 -4 -7 3 -7 19 0
14 5 26 7 26 5 0 -6 63 27 93 48 14 9 19 9 25 0 8 -13 18 -8 105 56 26 19 45
37 42 39 -2 3 -11 -1 -19 -7 -11 -9 -20 -10 -35 -1 -15 7 -27 8 -40 0 -42 -22
-43 -8 -2 16 25 13 51 22 58 20 8 -3 11 -1 8 4 -3 6 -2 10 2 10 5 0 18 7 29
16 18 14 18 15 -6 8 -14 -3 -43 -15 -65 -26 -22 -11 -56 -21 -75 -23 -40 -4
-84 -23 -154 -66 -27 -16 -51 -28 -53 -25 -6 6 72 56 87 56 5 0 10 4 10 10 0
5 20 21 44 35 49 29 82 61 51 48 -11 -3 -39 -17 -63 -30 -34 -18 -43 -20 -39
-8 6 13 3 13 -30 0 -42 -18 -43 -18 -43 -6 0 5 11 12 25 15 13 3 48 20 77 37
29 17 54 31 56 30 15 -7 52 2 52 14 0 9 6 12 17 8 10 -4 14 -2 10 4 -4 6 3 8
18 5 14 -2 25 0 25 7 0 5 7 8 15 5 15 -6 20 9 16 46 -2 12 0 13 8 1 5 -8 22
-13 37 -13 50 1 156 25 144 32 -13 8 119 30 170 27 23 -1 34 3 32 11 -1 7 9
12 22 12 14 0 28 5 32 12 5 8 -2 9 -27 5 -24 -5 -30 -4 -19 3 8 5 23 10 34 10
11 0 16 5 13 14 -6 14 47 31 64 20 13 -8 11 10 -3 25 -9 10 -9 12 -1 7 6 -3
15 -1 18 5 4 5 14 8 22 5 8 -3 24 3 36 15 l22 20 -35 -6 c-19 -4 -46 -8 -60
-10 -49 -6 -80 -17 -74 -26 3 -5 0 -9 -5 -9 -6 0 -11 6 -11 14 0 8 -3 22 -7
31 -5 14 -2 16 14 11 12 -4 25 -1 33 9 7 8 18 15 25 15 8 0 11 8 8 20 -3 11
-9 20 -14 20 -5 0 -9 9 -9 20 0 14 -7 20 -21 20 -17 0 -19 3 -10 14 10 11 35
14 84 7 5 -1 5 -5 2 -11 -3 -5 -2 -10 4 -10 6 0 8 -6 6 -12 -6 -17 39 -38 57
-27 7 5 28 9 46 9 25 0 32 4 32 20 0 10 7 23 17 28 14 9 14 10 -5 16 -30 10
-28 24 3 18 14 -2 25 -7 25 -11 0 -9 67 -7 76 2 4 4 -2 7 -14 7 -11 0 -24 5
-28 11 -7 13 54 3 72 -12 11 -9 74 25 74 41 0 6 9 6 26 0 36 -14 39 -13 52 15
8 18 8 25 1 25 -8 0 -8 4 0 14 7 8 14 32 17 53 3 31 0 44 -16 58 -24 21 -26
41 -6 48 9 4 17 -2 21 -14 7 -22 25 -26 25 -5 0 7 8 16 18 18 22 6 50 -12 45
-28 -2 -7 4 -11 14 -10 12 1 18 -7 19 -26 3 -33 32 -78 50 -78 8 0 14 -10 14
-26 0 -28 23 -57 35 -46 5 4 5 1 0 -7 -5 -9 2 -21 21 -37 30 -24 50 -29 79
-18 14 6 14 8 -2 26 -16 18 -16 19 2 12 12 -5 16 -4 12 4 -8 12 12 62 25 62 4
0 8 -8 8 -17 1 -13 5 -11 15 8 19 35 42 43 50 18 4 -10 10 -19 15 -19 13 0 0
32 -18 47 -11 9 -12 16 -4 26 9 11 10 38 3 78 -2 14 -34 19 -48 7 -11 -9 -16
-9 -24 3 -5 8 -8 19 -8 24 0 6 3 4 6 -3 7 -17 23 -5 23 19 0 12 -5 17 -10 14
-14 -9 -40 13 -40 32 0 11 8 14 30 11 32 -5 33 -4 20 27 -8 18 -9 18 -9 2 -1
-26 -21 -10 -21 16 0 15 -3 18 -8 9 -14 -21 -42 -2 -42 28 0 16 4 32 10 35 6
4 8 -7 4 -27 -4 -28 -3 -30 6 -15 7 10 9 30 5 44 -4 18 -2 24 7 21 7 -3 18 2
25 11 11 14 12 14 13 -5 0 -11 7 -29 15 -40 14 -18 14 -17 9 16 -3 19 -7 40
-9 47 -7 21 25 23 44 2 22 -24 33 -79 20 -95 -6 -8 -5 -14 4 -17 11 -4 13 7
10 53 -2 32 0 61 6 64 5 3 23 -11 40 -31 17 -21 31 -32 31 -25 0 6 7 12 15 12
8 0 15 5 15 10 0 6 7 10 15 10 8 0 15 7 15 15 0 8 5 15 10 15 6 0 10 -5 10
-10 0 -7 6 -7 18 -2 9 5 26 6 37 2 19 -7 19 -7 0 -18 -17 -10 -14 -11 15 -5
19 3 42 10 51 14 9 5 19 5 23 2 9 -10 117 -10 122 -1 3 5 10 5 16 2 6 -4 14 0
19 7 7 11 16 6 39 -21 21 -25 30 -30 30 -18 0 9 4 20 10 23 14 8 57 -22 63
-45 9 -34 -6 -31 -32 8 l-25 37 -11 -38 c-6 -21 -13 -36 -16 -33 -2 3 -4 -11
-4 -30 1 -25 -2 -33 -12 -30 -8 3 -13 -2 -13 -12 -1 -15 -2 -15 -13 -1 -7 8
-20 18 -29 22 -26 9 -24 -29 2 -43 11 -6 20 -17 20 -25 0 -8 3 -14 8 -14 21 4
31 -3 26 -16 -5 -13 -9 -13 -22 -3 -10 8 -13 9 -9 1 4 -6 2 -24 -4 -40 -6 -15
-10 -29 -9 -31 1 -2 -8 -12 -19 -22 -14 -11 -19 -24 -14 -35 4 -13 3 -16 -5
-11 -7 4 -12 2 -12 -4 0 -6 -5 -8 -11 -4 -8 4 -8 1 -1 -12 12 -24 10 -52 -8
-84 -9 -17 -10 -25 -1 -28 19 -6 13 -42 -7 -42 -11 0 -24 -12 -31 -26 -16 -36
-6 -42 19 -13 11 13 19 18 18 10 -2 -7 4 -16 12 -19 8 -2 12 -1 8 3 -12 12 25
35 38 24 8 -6 11 0 12 20 0 16 8 41 17 55 9 14 15 31 12 38 -5 14 23 68 35 68
15 0 8 -53 -8 -65 -17 -12 -28 -81 -15 -89 8 -6 5 -97 -4 -127 -4 -10 -12 -18
-18 -16 -7 1 -11 -8 -9 -25 2 -17 -1 -28 -8 -28 -7 0 -9 7 -6 16 3 8 2 13 -3
10 -5 -3 -11 -21 -13 -40 -3 -25 1 -37 14 -45 23 -14 28 -14 28 2 0 6 16 30
36 51 l36 40 -7 -35 c-9 -46 -59 -187 -79 -224 -9 -16 -16 -36 -16 -43 0 -7
-11 -29 -24 -50 -36 -58 -77 -142 -69 -142 22 1 227 189 304 279 10 11 15 29
12 45 -3 15 -1 26 6 26 6 0 11 -7 11 -15 0 -8 5 -15 10 -15 6 0 10 4 10 9 0 5
3 17 7 27 5 14 2 16 -15 12 -16 -5 -22 -2 -22 10 0 14 -2 15 -9 3 -8 -12 -11
-8 -16 15 -4 16 -11 43 -15 59 -8 28 -8 28 -9 -13 -1 -39 -2 -41 -20 -30 -10
6 -17 18 -14 25 3 7 -2 13 -10 13 -8 0 -17 -6 -20 -12 -2 -7 -7 -10 -11 -7 -3
3 5 29 19 57 14 29 25 63 25 76 0 13 7 41 16 61 59 141 44 373 -42 648 -20 65
-34 150 -17 110 8 -22 23 -14 23 11 0 27 38 125 56 143 6 7 14 9 17 6 4 -3 14
11 23 31 10 20 22 36 26 36 5 0 6 5 3 10 -4 6 -1 17 5 25 7 9 14 61 17 127 6
149 6 149 -16 205 -10 26 -21 71 -23 98 -5 53 -37 131 -102 250 -9 18 -16 53
-16 88 0 35 -7 71 -17 90 -9 18 -15 48 -14 68 1 27 -7 49 -34 87 -19 28 -35
56 -35 62 0 5 -4 10 -10 10 -5 0 -10 6 -10 13 0 8 -9 24 -20 37 -11 13 -20 27
-20 32 0 4 -3 7 -8 6 -4 -2 -36 25 -72 60 -36 35 -78 70 -95 79 -16 8 -38 22
-48 31 -9 8 -20 13 -23 9 -3 -3 -14 3 -25 14 -10 10 -27 19 -36 19 -10 0 -27
7 -37 15 -12 9 -22 11 -26 5 -3 -6 -17 -4 -33 5 -29 15 -180 29 -191 18z
m-1574 -2144 c-23 -21 -21 -39 4 -39 8 0 12 -5 9 -10 -6 -10 50 -27 68 -22 5
2 7 -3 5 -10 -3 -7 -27 -25 -54 -41 -27 -16 -50 -33 -52 -38 -2 -5 -8 -9 -13
-9 -6 0 -7 5 -3 11 3 6 0 22 -7 36 -11 21 -11 29 3 54 19 33 13 36 -20 13 -15
-10 -21 -22 -17 -34 3 -10 1 -22 -6 -25 -8 -6 -7 -10 2 -16 9 -5 6 -8 -11 -6
-13 1 -32 9 -42 19 -15 15 -16 18 0 35 9 10 30 25 45 33 16 8 24 16 18 18 -20
7 -11 22 14 22 13 0 28 6 32 14 8 14 35 26 42 20 3 -3 -5 -13 -17 -25z"/>
<path d="M10152 4746 c10 -12 -27 -67 -53 -80 -27 -13 -46 -86 -23 -86 7 0 10
-8 7 -20 -3 -11 -9 -20 -13 -20 -4 0 -3 -18 2 -39 9 -34 7 -44 -11 -69 -16
-24 -21 -45 -21 -98 0 -65 1 -67 16 -46 18 27 31 28 38 5 3 -10 4 9 1 42 -4
59 -4 60 14 38 l19 -22 26 24 c28 26 36 61 11 51 -10 -3 -15 1 -15 12 0 15 -2
15 -10 2 -8 -13 -10 -13 -10 2 0 25 22 68 35 68 6 0 19 17 28 38 11 23 12 30
4 20 -17 -22 -57 -24 -57 -3 0 8 -4 15 -10 15 -5 0 -10 -5 -10 -12 0 -6 -2 -9
-5 -6 -8 8 6 58 16 58 5 0 6 -7 3 -15 -4 -8 -2 -15 4 -15 16 0 20 24 6 38 -8
7 -16 12 -19 12 -18 -1 -18 2 -1 15 28 21 39 19 33 -7 -6 -20 -5 -20 11 -4 14
14 15 18 3 25 -9 6 -12 19 -8 40 4 19 2 33 -6 37 -7 4 -9 4 -5 0z"/>
<path d="M8477 3250 c-72 -35 -75 -37 -37 -36 16 1 30 4 30 7 0 15 27 16 45 2
19 -13 18 -14 -9 -7 -25 6 -28 4 -23 -10 4 -9 2 -16 -3 -16 -6 0 -10 -5 -10
-11 0 -7 10 -9 28 -4 50 14 94 16 87 5 -3 -5 -13 -10 -21 -10 -8 0 -14 -5 -14
-10 0 -7 6 -7 18 -2 22 12 88 24 79 15 -6 -5 -105 -43 -115 -43 -2 0 0 5 3 10
9 14 -11 12 -43 -4 -15 -8 -50 -17 -77 -20 -40 -5 -45 -4 -26 4 35 15 21 20
-27 9 -23 -5 -54 -6 -67 -3 -14 3 -25 2 -25 -3 0 -11 -44 -33 -66 -33 -18 0
-71 -39 -65 -48 9 -14 -29 -27 -47 -15 -12 7 -24 8 -35 2 -9 -6 -35 -8 -57 -5
-34 4 -40 2 -40 -14 0 -47 9 -49 62 -14 47 32 68 36 68 13 0 -5 -3 -8 -7 -7
-5 2 -28 -6 -53 -16 -31 -13 -39 -21 -27 -23 19 -5 23 -19 6 -25 -15 -5 11
-56 43 -83 20 -17 21 -20 6 -23 -13 -3 -16 -10 -11 -33 4 -22 2 -29 -10 -29
-10 0 -16 -12 -19 -39 -3 -39 -3 -39 29 -34 18 3 39 0 47 -6 28 -23 146 -51
172 -40 19 7 29 5 40 -6 9 -8 25 -15 38 -15 15 0 22 -6 23 -20 2 -18 0 -19
-13 -5 -17 17 -59 21 -49 5 3 -5 13 -10 22 -10 20 0 12 -9 -13 -15 -66 -13
-147 -35 -152 -40 -3 -3 0 -11 6 -17 8 -8 12 -8 12 -1 0 22 124 34 208 20 29
-5 41 -4 37 3 -3 5 -1 10 4 10 22 0 10 20 -11 21 l-23 0 23 9 c12 5 23 14 23
20 1 5 3 15 4 20 1 6 3 19 4 30 1 13 8 20 21 20 25 0 25 -11 1 -42 -16 -20
-18 -31 -11 -63 5 -22 8 -40 7 -40 -6 -2 -135 -59 -149 -66 -10 -5 -29 -9 -42
-9 -14 0 -59 -14 -101 -30 l-76 -31 -28 20 c-25 18 -33 19 -62 10 -19 -7 -41
-18 -49 -27 -13 -13 -13 -14 5 -8 42 16 66 16 88 1 27 -17 65 -12 122 15 22
11 56 22 75 26 19 3 64 17 100 30 71 26 90 28 251 20 102 -5 107 -5 135 19 30
25 29 37 -2 35 -91 -8 -199 4 -189 20 3 6 -1 7 -10 4 -9 -4 -24 1 -34 10 -10
9 -21 13 -24 9 -4 -3 -7 -1 -7 5 0 18 21 14 36 -5 12 -17 14 -15 26 14 15 40
37 51 33 17 -3 -27 7 -31 25 -9 9 11 16 12 25 5 7 -6 16 -7 19 -2 3 4 -8 16
-25 26 -16 9 -27 22 -24 27 11 17 33 9 50 -18 15 -23 19 -24 27 -9 5 9 6 21 3
26 -3 6 3 10 14 10 11 0 23 -5 26 -11 5 -7 15 -5 31 5 13 9 41 16 62 16 21 0
44 6 50 12 10 10 15 10 21 0 7 -11 9 -10 14 2 4 9 17 16 30 16 13 0 40 11 60
24 19 13 37 22 40 20 2 -2 12 5 22 16 10 11 24 20 30 20 15 0 40 28 32 36 -3
4 -13 -1 -22 -10 -9 -9 -20 -16 -25 -16 -5 0 -16 -7 -25 -16 -12 -13 -19 -14
-30 -4 -11 9 -15 9 -15 1 0 -6 6 -11 13 -11 8 0 7 -4 -3 -10 -23 -15 -43 -12
-36 5 3 9 0 15 -10 15 -10 0 -13 -7 -8 -24 4 -18 1 -25 -15 -29 -18 -4 -19 -2
-10 14 12 23 6 23 -55 3 -37 -13 -55 -14 -89 -6 -23 6 -84 14 -135 18 -88 7
-92 6 -85 -12 4 -10 16 -27 28 -37 20 -17 20 -17 -13 -13 -19 2 -42 12 -51 20
-10 9 -27 16 -39 16 -22 0 -28 10 -15 23 3 4 13 2 20 -5 11 -9 16 -9 23 2 5 8
6 18 3 23 -4 6 5 7 21 3 25 -6 36 6 16 19 -6 4 -1 14 12 26 l23 19 -65 -5
c-36 -2 -81 -8 -100 -14 -19 -6 -51 -11 -70 -11 l-35 1 34 15 c57 24 190 44
217 32 29 -13 56 -4 48 16 -4 11 3 19 21 26 56 21 92 5 38 -17 -27 -11 -27
-11 -3 -8 14 2 43 10 65 18 22 8 61 17 86 21 26 4 55 14 65 22 18 14 16 15
-16 9 -34 -6 -34 -6 -10 8 16 8 33 11 47 6 14 -5 47 0 95 16 40 14 85 27 100
30 15 3 33 12 42 20 8 8 21 15 30 15 8 0 28 11 43 25 21 19 24 24 11 25 -9 0
-20 -4 -23 -10 -10 -16 -35 -11 -36 8 0 13 -2 12 -9 -5 -7 -17 -17 -23 -37
-22 -27 0 -28 1 -5 11 12 6 22 15 22 20 0 12 64 38 94 38 15 0 30 8 36 20 6
11 16 17 22 14 6 -4 8 -3 4 4 -3 5 0 13 6 15 7 3 3 6 -8 6 -14 1 -24 -7 -27
-19 -4 -17 -13 -21 -44 -19 -21 1 -50 -3 -64 -9 -39 -15 -51 -2 -43 46 5 34 4
42 -9 42 -9 0 -25 -12 -36 -26 -12 -15 -21 -22 -21 -15 0 14 -37 15 -45 1 -3
-5 2 -10 12 -11 10 0 5 -5 -12 -10 -22 -6 -31 -5 -38 6 -4 8 -18 15 -30 15
-22 0 -22 1 3 20 14 11 31 20 38 20 6 0 12 5 12 10 0 6 10 15 23 20 12 5 16 9
9 9 -7 1 -29 -6 -49 -14 -33 -14 -38 -14 -55 1 -10 10 -21 15 -24 11 -3 -3 3
-12 15 -19 26 -16 27 -28 1 -28 -11 0 -20 -5 -20 -12 0 -6 -3 -9 -6 -5 -3 3
-24 -1 -45 -8 -22 -8 -37 -10 -34 -4 7 11 -37 3 -67 -12 -22 -12 -28 -11 -28
1 0 6 10 15 23 21 18 8 16 9 -15 5 -21 -3 -38 -1 -38 4 0 8 -51 19 -112 23
-47 3 -57 13 -32 32 27 20 17 17 -49 -15z"/>
<path d="M4114 3098 c-16 -5 -73 -9 -126 -11 -53 -1 -89 -5 -80 -8 18 -7 -235
-23 -318 -20 -30 1 -75 -2 -100 -7 -35 -7 -49 -5 -59 5 -9 10 -22 12 -40 8
-33 -8 -39 -14 -23 -24 6 -4 -32 -8 -86 -8 -53 -1 -117 -6 -142 -12 -25 -6
-57 -11 -72 -11 -15 0 -39 -5 -55 -12 -32 -13 -26 -11 -78 -23 -22 -4 -43 -8
-47 -7 -5 1 -41 -3 -80 -9 -40 -6 -86 -12 -103 -13 -16 -2 -56 -9 -88 -15 -31
-7 -61 -9 -66 -6 -5 3 -13 0 -16 -6 -4 -5 -14 -8 -23 -4 -8 3 -29 1 -46 -4
-44 -13 -128 -28 -221 -41 -44 -6 -107 -15 -140 -21 -60 -9 -107 -16 -180 -24
-21 -3 -53 -9 -70 -14 -16 -5 -64 -13 -105 -16 -41 -4 -104 -13 -140 -20 -36
-8 -114 -21 -175 -30 -158 -23 -297 -45 -318 -51 -29 -9 -17 -46 18 -56 33
-10 173 -2 245 13 48 10 375 57 450 64 25 3 70 9 100 14 115 21 177 30 230 36
30 3 80 10 110 15 30 5 79 11 109 15 29 3 57 7 60 9 4 3 92 16 196 31 105 14
222 33 260 40 151 31 435 76 530 86 55 5 123 14 150 19 28 5 109 19 180 30
233 36 400 68 435 82 l35 15 -41 -1 c-23 0 -55 -4 -70 -8z"/>
<path d="M4715 3032 c-6 -5 -37 -17 -70 -27 -47 -15 -55 -20 -35 -23 47 -7 41
-19 -16 -31 -71 -14 -104 -14 -104 0 0 13 -81 2 -129 -17 -18 -8 -37 -11 -42
-8 -5 3 -9 1 -9 -4 0 -10 -107 -30 -200 -37 -36 -3 -81 -9 -100 -14 -27 -7
-180 -27 -329 -43 -94 -10 -9 44 103 66 56 11 226 68 226 76 0 22 -95 22 -145
0 -58 -26 -296 -84 -425 -105 -19 -3 -66 -14 -105 -24 -38 -10 -97 -21 -130
-25 -81 -8 -101 -11 -165 -24 -30 -6 -84 -14 -120 -17 -69 -6 -255 -33 -280
-40 -8 -2 -62 -9 -120 -15 -137 -14 -187 -19 -230 -25 -46 -7 -102 -13 -175
-20 -115 -11 -150 -15 -225 -25 -81 -10 -86 -11 -290 -35 -181 -20 -250 -35
-250 -51 0 -7 5 -16 12 -20 18 -12 156 -6 271 10 56 9 197 27 312 41 116 14
235 30 265 35 30 5 95 12 144 15 49 3 92 8 96 10 3 2 40 6 80 9 41 4 109 11
150 16 41 5 100 12 130 15 105 10 156 16 265 30 205 26 370 44 475 50 114 7
148 11 225 25 28 5 100 16 160 25 61 8 157 22 215 30 132 19 160 23 445 59
175 23 319 47 328 56 12 11 -43 28 -78 24 -16 -2 -54 -7 -82 -10 -32 -4 -53
-2 -53 4 0 5 6 9 13 8 13 -1 17 5 17 29 0 17 -11 19 -25 7z"/>
<path d="M6197 2971 c-14 -38 -66 -61 -80 -36 -5 10 -19 15 -35 14 -15 -2 -32
-1 -37 3 -19 11 -90 20 -80 10 6 -6 19 -12 30 -15 18 -4 17 -5 -3 -6 -13 0
-21 -5 -18 -10 3 -5 -13 -11 -37 -15 -68 -11 -97 -13 -97 -6 0 3 -11 7 -26 8
-14 1 -23 -2 -19 -8 3 -6 13 -10 22 -10 9 0 13 -6 10 -14 -4 -10 4 -12 39 -8
38 4 43 2 38 -11 -4 -12 4 -20 30 -31 20 -8 36 -19 36 -23 0 -15 66 -33 101
-28 24 4 28 3 14 -3 -15 -7 -5 -13 52 -30 39 -12 75 -22 80 -22 16 1 -31 30
-48 30 -26 0 -31 16 -12 31 12 10 14 10 9 2 -4 -8 -2 -13 8 -13 8 0 17 8 19
18 4 16 5 16 6 0 1 -18 21 -26 21 -10 0 5 14 7 31 4 19 -3 28 -9 25 -17 -2 -7
5 -16 17 -20 19 -7 16 -9 -18 -15 -31 -6 -34 -8 -15 -10 62 -8 86 -7 93 4 5 8
10 6 17 -4 7 -12 13 -13 28 -3 16 9 23 8 39 -9 25 -25 71 -18 99 14 17 20 18
21 2 15 -14 -5 -18 -1 -18 15 0 15 -3 18 -13 10 -16 -13 -86 -20 -86 -8 1 5
-5 13 -13 17 -10 7 -8 9 7 10 11 0 14 3 7 6 -6 2 -9 9 -6 15 4 6 -1 8 -15 3
-16 -5 -20 -3 -15 9 5 12 0 16 -21 16 -17 0 -24 4 -19 12 5 8 0 9 -15 5 -37
-9 -68 42 -41 69 7 7 5 17 -5 30 -13 17 -14 17 -15 2 0 -10 -5 -18 -11 -18 -7
0 -9 10 -5 25 4 14 2 25 -3 25 -5 0 -17 3 -26 6 -11 5 -19 -2 -28 -25z"/>
<path d="M7604 2812 c7 -21 -1 -28 -27 -23 -5 1 -6 -3 -2 -8 3 -6 -3 -15 -14
-21 -14 -7 -22 -7 -26 0 -5 8 -11 7 -20 0 -8 -7 -18 -9 -22 -7 -12 8 -40 -16
-46 -38 -5 -19 -5 -19 -12 2 -4 13 -11 21 -15 18 -5 -3 -6 5 -2 17 5 21 4 22
-12 9 -9 -8 -20 -11 -23 -7 -4 4 -1 12 7 17 16 11 9 9 -30 -8 -61 -27 -158
-63 -185 -68 -16 -4 -47 -13 -68 -21 -20 -8 -46 -14 -57 -14 -17 0 -19 5 -15
36 4 36 4 36 -15 19 -11 -10 -18 -20 -15 -23 3 -3 0 -11 -5 -17 -7 -9 1 -17
28 -31 20 -10 42 -25 47 -31 6 -7 33 -13 60 -14 56 -2 204 19 220 30 18 13
159 55 180 53 51 -5 60 -8 67 -17 4 -6 8 -2 8 8 0 11 5 17 13 14 6 -2 20 2 30
11 15 14 17 13 17 -7 0 -16 5 -21 18 -19 12 2 16 11 14 28 -4 22 -2 23 14 10
16 -14 16 -13 4 10 -13 25 -90 105 -90 93 0 -3 -7 1 -16 8 -15 12 -16 11 -10
-9z"/>
</g>
</svg>
