<?xml version="1.0" standalone="no"?>
<!DOCTYPE svg PUBLIC "-//W3C//DTD SVG 20010904//EN"
 "http://www.w3.org/TR/2001/REC-SVG-20010904/DTD/svg10.dtd">
<svg version="1.0" xmlns="http://www.w3.org/2000/svg"
 width="1336.000000pt" height="752.000000pt" viewBox="0 0 1336.000000 752.000000"
 preserveAspectRatio="xMidYMid meet">

<g transform="translate(0.000000,752.000000) scale(0.100000,-0.100000)"
fill="#000000" stroke="none">
<path d="M0 3760 l0 -3760 6680 0 6680 0 0 3760 0 3760 -6680 0 -6680 0 0
-3760z m4804 931 c3 -5 -13 -9 -36 -9 -22 -1 -46 -6 -52 -12 -8 -9 0 -11 36
-8 25 1 44 0 41 -4 -2 -5 1 -8 6 -8 6 0 11 5 11 11 0 6 8 8 19 4 12 -3 21 0
25 10 3 10 11 13 18 9 6 -4 36 -8 66 -9 30 -1 57 -6 61 -11 3 -5 17 -15 31
-22 14 -7 43 -23 65 -37 22 -13 55 -31 73 -39 18 -8 49 -29 69 -45 20 -17 40
-28 45 -25 10 7 76 -63 89 -94 5 -13 14 -20 19 -17 6 4 9 1 8 -7 -2 -7 3 -12
11 -10 8 2 11 -3 8 -12 -3 -8 5 -26 18 -40 13 -14 26 -35 30 -46 4 -11 10 -18
14 -15 5 2 13 -13 20 -35 6 -21 17 -45 24 -52 7 -7 17 -26 23 -43 6 -16 15
-29 21 -28 19 4 32 -38 57 -182 2 -11 4 -30 5 -42 0 -12 8 -28 16 -36 7 -8 17
-28 21 -43 4 -16 15 -42 24 -59 26 -42 36 -105 20 -115 -10 -6 -11 -26 -1 -97
15 -119 14 -165 -4 -189 -14 -19 -14 -19 -16 1 0 11 -1 80 0 153 0 81 -3 132
-9 132 -6 0 -10 9 -10 20 0 29 -18 25 -26 -6 -10 -41 -23 -8 -13 35 5 20 9 53
9 73 0 20 6 39 13 41 6 3 2 6 -10 6 -29 1 -44 30 -37 73 6 32 4 36 -21 42 -20
5 -31 2 -40 -11 -13 -17 -14 -17 -28 2 -11 15 -14 38 -9 99 5 77 4 80 -12 63
-10 -10 -15 -24 -12 -32 3 -8 2 -15 -3 -15 -5 0 -23 45 -41 99 -18 55 -41 108
-52 118 -19 17 -19 17 -13 -12 10 -48 -10 -7 -25 50 -7 28 -27 68 -43 90 -16
22 -27 32 -23 22 3 -10 8 -46 11 -80 5 -56 2 -70 -31 -142 -20 -44 -40 -98
-44 -121 -9 -44 -46 -114 -61 -114 -4 0 -23 -13 -41 -29 -74 -64 -146 -88
-291 -96 -106 -6 -157 6 -190 44 -13 16 -42 40 -65 55 -23 14 -59 50 -81 79
-42 55 -62 121 -76 252 -8 77 -25 144 -43 172 -21 34 -8 88 29 116 17 12 34
22 37 23 21 2 72 41 72 55 0 9 7 19 15 23 18 7 19 -5 3 -24 -7 -7 0 -4 16 8
16 12 34 22 41 22 24 0 115 31 115 39 0 13 -56 19 -74 9 -9 -5 -28 -11 -43
-13 -16 -2 -39 -7 -53 -11 -20 -5 -23 -4 -13 6 6 7 29 16 50 21 21 4 54 12 73
17 45 13 157 15 164 3z m-334 -45 c0 -3 -4 -8 -10 -11 -5 -3 -10 -1 -10 4 0 6
5 11 10 11 6 0 10 -2 10 -4z m-40 -20 c0 -2 -16 -13 -35 -25 -40 -23 -46 -18
-12 10 20 16 47 25 47 15z m-1 -30 c-2 -2 -15 -9 -29 -16 -23 -12 -24 -12 -11
3 7 10 20 17 29 17 8 0 13 -2 11 -4z m-116 -163 c-2 -32 -4 -69 -4 -83 l0 -25
-14 27 c-12 22 -13 37 -5 74 19 83 29 86 23 7z m-71 -35 c-7 -7 -12 -8 -12 -2
0 6 3 14 7 17 3 4 9 5 12 2 2 -3 -1 -11 -7 -17z m1234 -485 c-4 -43 -7 -107
-6 -142 1 -53 -3 -67 -21 -87 -16 -17 -20 -30 -15 -48 9 -36 -9 -33 -24 4 -9
22 -10 48 -1 110 6 44 15 88 20 98 4 9 14 42 21 72 14 59 18 70 27 70 3 0 3
-35 -1 -77z m-1720 52 c9 -8 12 -20 8 -26 -5 -8 -3 -9 6 -4 10 6 12 4 7 -9 -4
-11 -1 -19 11 -23 9 -4 21 -12 25 -20 4 -7 16 -13 25 -13 9 0 41 -20 71 -44
29 -24 65 -49 80 -56 14 -7 34 -16 43 -21 10 -5 22 -9 27 -9 5 0 39 -18 75
-40 36 -22 72 -40 79 -40 7 0 17 -4 23 -9 9 -10 87 -55 161 -93 36 -19 45 -20
72 -8 17 7 31 20 31 29 1 9 13 34 28 56 24 34 37 42 92 57 127 33 240 49 273
39 18 -6 44 -13 59 -16 36 -7 99 -73 132 -139 15 -29 36 -62 46 -74 10 -11 17
-22 14 -25 -8 -8 15 -57 27 -57 7 0 19 -7 28 -15 9 -8 26 -23 38 -34 12 -11
36 -27 52 -36 17 -8 31 -20 31 -25 0 -6 6 -10 13 -10 6 0 31 -18 55 -39 38
-35 45 -38 77 -31 19 4 35 4 35 0 0 -5 14 -21 30 -37 17 -15 42 -47 57 -70 15
-24 34 -45 42 -48 9 -3 34 -29 56 -58 39 -50 40 -51 43 -24 2 19 9 27 22 27
21 0 27 -16 29 -80 1 -24 4 -46 6 -48 2 -2 52 13 112 33 60 19 147 46 194 59
226 62 355 101 360 109 4 5 16 6 27 3 11 -4 39 -2 63 3 24 5 70 12 103 16 42
5 55 10 47 18 -8 8 -6 16 6 29 20 23 49 23 62 1 8 -16 24 -18 137 -15 70 1
175 7 233 12 58 5 156 14 216 20 189 17 429 15 525 -3 47 -9 131 -21 188 -27
57 -5 149 -21 204 -36 101 -25 103 -25 272 -13 265 18 486 -1 699 -61 59 -16
122 -30 140 -30 19 0 27 -3 20 -8 -8 -5 16 -18 61 -35 93 -35 179 -110 226
-199 18 -35 50 -85 71 -113 41 -56 80 -129 99 -190 7 -22 31 -68 52 -102 51
-81 110 -217 102 -237 -3 -9 1 -27 9 -40 10 -15 14 -41 12 -77 -1 -30 -3 -74
-4 -99 -1 -34 -4 -41 -11 -28 -16 26 -46 15 -42 -16 3 -26 -20 -38 -33 -17 -3
5 -31 9 -62 8 -60 -2 -75 -15 -51 -44 11 -14 11 -16 -1 -12 -15 5 -17 7 -49
81 -15 33 -38 60 -78 90 -31 24 -67 51 -79 60 -12 10 -51 32 -86 50 l-64 33
40 3 c22 2 57 -2 78 -8 22 -6 41 -9 43 -7 10 10 -74 71 -152 110 -46 23 -84
47 -84 53 0 7 19 41 43 77 46 68 48 88 11 117 -18 14 -18 13 0 -8 24 -28 15
-28 -34 0 -21 13 -41 32 -44 43 -4 13 -9 16 -13 9 -6 -9 -29 -2 -78 21 -38 18
-92 41 -120 50 -27 10 -55 22 -61 27 -6 4 -22 7 -35 6 -13 0 -46 2 -74 7 -27
4 -70 9 -95 10 -25 1 -79 5 -122 9 -52 6 -87 5 -109 -3 -30 -10 -35 -9 -51 11
-10 13 -15 31 -12 40 3 10 7 30 10 45 2 16 7 40 10 54 3 16 -1 30 -11 39 -8 7
-15 19 -15 26 0 20 -16 18 -147 -11 -14 -3 -24 -15 -28 -36 -4 -16 -22 -46
-41 -65 -35 -34 -34 -38 11 -47 12 -2 -2 -8 -34 -15 -56 -13 -126 -59 -136
-91 -3 -10 -31 -32 -63 -49 -31 -17 -83 -51 -114 -75 -32 -25 -120 -75 -195
-111 -76 -37 -160 -78 -188 -93 -27 -14 -66 -31 -87 -39 -33 -11 -38 -11 -38
1 0 20 -2 19 -68 -14 -31 -15 -88 -34 -127 -41 -38 -7 -79 -17 -90 -23 -11 -6
-30 -11 -42 -13 -12 -1 -57 -16 -99 -33 -46 -19 -95 -31 -123 -31 -25 0 -55
-7 -65 -15 -27 -20 -42 -19 -25 2 13 15 11 15 -19 -1 -18 -9 -36 -14 -41 -11
-5 2 -22 -2 -37 -10 -16 -8 -36 -15 -45 -15 -9 0 -19 -3 -23 -7 -18 -18 -230
-90 -287 -97 -65 -8 -242 7 -348 30 -63 14 -83 14 -128 4 -77 -19 -171 -7
-257 32 -39 18 -78 41 -86 50 -9 11 -36 20 -70 23 -30 3 -62 13 -71 21 -8 7
-22 14 -30 14 -9 0 -24 7 -35 15 -18 14 -18 14 6 15 l25 1 -25 14 c-14 8 -19
15 -12 16 6 1 17 3 22 4 6 1 13 3 18 4 4 1 -5 8 -20 17 -24 13 -26 17 -16 34
7 11 18 20 25 20 7 0 10 6 7 14 -3 8 9 22 30 34 20 12 36 26 36 32 0 7 8 9 20
5 12 -4 27 -1 35 5 20 17 19 50 -1 50 -14 0 -14 2 -3 16 18 21 21 47 6 56 -7
4 -1 11 16 19 16 7 26 18 23 26 -3 7 1 13 10 13 8 0 12 4 9 10 -4 6 -14 5 -27
-3 -16 -9 -22 -9 -25 1 -3 6 -9 12 -15 12 -6 0 -7 -7 -4 -15 6 -17 -43 -75
-63 -75 -6 0 -19 -12 -29 -27 -21 -34 -83 -103 -92 -103 -12 0 -42 99 -35 119
3 11 0 24 -7 30 -7 6 -28 23 -46 37 -27 22 -33 33 -30 56 3 20 -1 33 -13 42
-10 7 -23 25 -29 40 -5 15 -19 30 -30 33 -11 3 -20 12 -20 19 0 17 -20 19 -20
2 0 -7 -10 0 -22 15 -28 39 -60 50 -94 32 -34 -18 -74 -2 -74 30 0 19 -11 25
-75 44 -45 14 -97 22 -128 21 -71 -3 -77 -2 -71 14 6 16 -24 36 -55 36 -12 0
-20 3 -19 8 3 12 -24 62 -34 62 -4 0 -8 4 -8 9 0 6 12 9 28 8 23 -2 28 2 30
25 2 19 10 30 26 34 13 3 23 11 22 17 0 7 1 12 4 12 3 0 12 6 20 13 8 7 31 23
50 35 20 13 34 30 32 39 -2 16 9 21 88 33 19 3 46 7 60 9 14 2 50 11 79 20 30
9 76 16 101 16 26 0 50 3 53 6 4 4 -2 19 -13 34 -11 16 -20 33 -20 39 0 6 -9
11 -20 11 -11 0 -23 7 -26 15 -4 10 -14 13 -28 9 -25 -6 -71 9 -92 31 -14 13
-13 15 3 15 23 0 73 22 73 32 0 4 -9 12 -20 18 -11 6 -20 8 -20 5 0 -3 -8 -1
-18 4 -12 6 -23 5 -36 -4 -12 -10 -50 -14 -122 -13 -63 0 -110 -4 -118 -11
-15 -13 -75 -8 -105 9 -11 5 -37 10 -58 10 -21 0 -56 7 -78 14 -22 8 -74 17
-115 21 -131 12 -109 23 104 53 27 4 51 12 53 17 2 6 -57 10 -164 10 -168 1
-168 1 -283 39 -63 22 -118 40 -121 42 -12 6 -18 -36 -7 -43 7 -3 8 -1 4 5
-10 16 -2 15 61 -5 29 -10 53 -24 53 -30 0 -16 -16 -17 -25 -3 -5 8 -11 7 -21
-1 -12 -10 -12 -14 -2 -20 10 -7 9 -9 -4 -9 -10 0 -21 0 -24 1 -4 0 -11 -5
-16 -13 -7 -9 -8 -7 -3 8 4 17 1 21 -17 20 -15 -1 -23 -7 -22 -19 1 -12 -6
-18 -25 -19 -52 -3 -56 -4 -69 -11 -6 -5 -15 -6 -20 -3 -4 2 -33 -2 -64 -9
-31 -7 -59 -11 -61 -8 -3 2 -8 0 -12 -6 -4 -7 9 -11 37 -12 41 -1 40 -2 -22
-14 -36 -7 -85 -16 -110 -19 -25 -3 -65 -9 -91 -15 -25 -5 -65 -8 -89 -6 -24
1 -52 -2 -63 -9 -15 -8 -21 -8 -24 2 -3 6 -14 12 -26 13 -32 1 -80 32 -83 53
-5 34 -14 48 -29 42 -8 -3 -15 -1 -15 4 0 6 5 10 12 10 14 0 75 67 83 90 6 19
45 44 45 29 0 -5 4 -8 8 -5 5 3 19 -2 30 -10 20 -14 21 -17 7 -30 -17 -17 -20
-44 -6 -44 6 0 13 5 17 11 4 7 21 9 44 5 21 -3 52 -1 70 5 24 9 34 9 39 0 4
-6 15 -9 24 -5 23 8 22 25 0 18 -15 -5 -16 -4 -3 5 24 17 40 13 40 -10 0 -19
4 -21 37 -16 20 4 39 11 42 16 6 9 62 34 65 29 1 -2 8 -15 16 -30 17 -35 38
-36 46 -3 3 14 10 25 15 25 5 0 9 13 9 29 0 16 6 31 13 34 20 8 -3 24 -68 46
-64 23 -105 27 -105 11 0 -5 -4 -10 -8 -10 -5 0 -8 9 -8 21 1 16 -10 24 -50
38 -95 34 -96 30 17 107 56 38 115 84 132 102 35 37 34 37 53 17z m1847 -245
c-3 -12 -8 -19 -11 -16 -5 6 5 36 12 36 2 0 2 -9 -1 -20z m-2038 -31 c-4 -5
-16 -9 -28 -9 -21 1 -21 1 -3 15 20 15 41 11 31 -6z m35 -38 c0 -4 11 -6 25
-3 18 3 25 0 25 -11 0 -12 -11 -15 -50 -14 -52 1 -58 5 -38 25 14 14 38 16 38
3z m169 -17 c3 -3 -1 -10 -8 -17 -9 -9 -14 -9 -20 2 -5 8 -16 11 -30 6 -20 -6
-28 4 -14 19 7 6 63 -2 72 -10z m-269 -19 c0 -9 -6 -12 -15 -9 -8 4 -12 10 -9
15 8 14 24 10 24 -6z m101 -18 c-10 -9 -11 -8 -5 6 3 10 9 15 12 12 3 -3 0
-11 -7 -18z m-24 -13 c-3 -3 -12 -4 -19 -1 -8 3 -5 6 6 6 11 1 17 -2 13 -5z
m1810 -16 c-2 -7 3 -21 11 -31 13 -15 13 -21 2 -42 -7 -14 -17 -25 -21 -25
-14 0 -20 39 -10 58 6 11 8 22 5 25 -6 6 4 27 12 27 3 0 4 -6 1 -12z m-1307
-38 c8 -5 11 -12 8 -16 -10 -9 -38 3 -38 16 0 12 10 13 30 0z m-982 -37 c-21
-20 -41 -34 -44 -30 -10 10 46 67 65 67 10 0 3 -13 -21 -37z m2662 -79 c11
-60 22 -121 26 -136 5 -20 1 -29 -15 -37 -20 -11 -21 -9 -21 27 0 23 -6 45
-15 52 -11 9 -12 16 -4 26 7 9 9 42 4 101 -4 48 -4 85 -1 82 4 -4 15 -55 26
-115z m27 -6 c-3 -7 -5 -2 -5 12 0 14 2 19 5 13 2 -7 2 -19 0 -25z m9 -85
c-11 -11 -17 4 -9 23 7 18 8 18 11 1 2 -10 1 -21 -2 -24z m-1426 -933 c0 -5
-5 -10 -11 -10 -5 0 -7 5 -4 10 3 6 8 10 11 10 2 0 4 -4 4 -10z m1190 -49 c0
-5 -12 -11 -27 -14 -26 -5 -26 -4 -8 9 22 16 35 18 35 5z m4275 -610 c-34 -14
-145 -23 -145 -12 0 12 35 18 110 19 37 0 48 -2 35 -7z m285 0 c0 -5 -7 -11
-15 -15 -15 -5 -20 5 -8 17 9 10 23 9 23 -2z m-447 -28 c-7 -2 -13 -11 -13
-19 0 -15 -29 -18 -70 -7 -23 6 -21 8 20 19 46 12 87 17 63 7z m147 -363 c0
-5 -21 -9 -47 -9 l-48 2 40 7 c22 4 43 8 48 9 4 0 7 -3 7 -9z m-3398 -45 c2
-6 -26 -11 -64 -13 -39 -2 -68 1 -68 7 0 14 17 17 77 17 29 -1 54 -5 55 -11z
m853 6 c-6 -5 -21 -12 -35 -16 -24 -7 -24 -7 -5 9 21 16 56 23 40 7z m2388 -8
c-13 -2 -35 -2 -50 0 -16 2 -5 4 22 4 28 0 40 -2 28 -4z m115 -10 c-10 -2 -28
-2 -40 0 -13 2 -5 4 17 4 22 1 32 -1 23 -4z m-3565 -10 c-7 -2 -19 -2 -25 0
-7 3 -2 5 12 5 14 0 19 -2 13 -5z m3254 -49 c-3 -3 -12 -4 -19 -1 -8 3 -5 6 6
6 11 1 17 -2 13 -5z m228 -25 c5 -5 23 -9 40 -10 l30 -1 -33 -11 c-25 -7 -50
-7 -96 2 -35 7 -79 10 -98 6 -22 -4 -38 -3 -42 4 -5 7 5 11 28 11 20 0 36 5
36 11 0 13 119 2 135 -12z m-3862 -6 c-7 -2 -19 -2 -25 0 -7 3 -2 5 12 5 14 0
19 -2 13 -5z m-434 -17 c-12 -10 -60 -16 -54 -6 3 5 18 10 32 10 15 0 24 -2
22 -4z m886 -5 c-11 -5 -42 -10 -70 -13 -48 -5 -49 -5 -20 8 17 7 48 13 70 13
30 0 35 -2 20 -8z m3545 -10 c16 -4 21 -9 13 -14 -16 -10 -97 -27 -163 -34
-30 -3 -60 -12 -68 -19 -7 -8 -23 -14 -35 -14 -18 0 -19 2 -7 10 12 8 10 10
-8 10 -29 0 -19 20 11 21 12 0 16 3 10 6 -25 10 -12 20 25 21 20 0 62 5 92 10
67 11 97 12 130 3z m-3685 -11 c-3 -5 -16 -10 -28 -9 -20 1 -20 2 3 9 14 4 26
8 28 9 2 1 0 -3 -3 -9z m3405 0 c0 -5 -7 -10 -15 -10 -8 0 -15 5 -15 10 0 6 7
10 15 10 8 0 15 -4 15 -10z m-3603 -47 c3 -6 -4 -12 -14 -12 -10 0 -40 -1 -66
-3 -61 -6 -71 8 -15 21 54 12 90 10 95 -6z m1558 -3 c-22 -5 -94 -8 -160 -8
-148 1 -81 13 85 15 86 1 105 -1 75 -7z m243 -7 c-10 -2 -26 -2 -35 0 -10 3
-2 5 17 5 19 0 27 -2 18 -5z m1772 -3 c0 -5 -7 -6 -17 -3 -11 4 -14 3 -9 -5 5
-8 0 -12 -13 -12 -14 0 -19 5 -15 15 7 16 54 21 54 5z m-2693 -36 c-15 -8 -27
-19 -27 -25 0 -5 -15 -9 -32 -8 -18 1 -66 -2 -105 -6 -64 -7 -73 -6 -73 9 0 8
-11 18 -25 22 -59 15 -3 24 138 23 138 -1 149 -2 124 -15z m727 -230 c9 -3 16
-12 16 -20 0 -9 12 -14 37 -14 45 0 37 -10 -19 -22 -96 -21 -111 -21 -125 -2
-10 13 -24 18 -56 16 -23 -1 -55 5 -72 12 l-30 14 35 2 c78 3 175 12 179 16 6
6 16 5 35 -2z m-680 -16 c-4 -7 -3 -8 4 -4 7 4 20 2 29 -3 14 -8 7 -10 -31
-11 -46 0 -48 1 -30 15 23 17 38 19 28 3z m391 -18 c4 -6 -5 -10 -19 -10 -14
0 -26 5 -26 10 0 6 9 10 19 10 11 0 23 -4 26 -10z m-2275 -30 c24 -1 24 -2 4
-10 -46 -18 -164 -11 -164 10 0 13 31 16 85 8 28 -3 61 -7 75 -8z m220 -24
c-1 -6 -21 -24 -46 -39 -39 -25 -50 -28 -93 -22 -27 4 -58 13 -68 21 -17 13
-16 13 7 14 14 0 49 13 79 29 47 24 59 27 88 18 18 -6 33 -15 33 -21z"/>
<path d="M4621 4299 c-76 -61 -71 -72 45 -84 74 -8 132 6 164 40 l23 24 -33
31 c-28 26 -39 30 -90 30 -52 0 -62 -4 -109 -41z m99 1 c0 -5 -4 -10 -10 -10
-5 0 -10 5 -10 10 0 6 5 10 10 10 6 0 10 -4 10 -10z"/>
<path d="M5565 4049 c6 -45 15 -49 15 -6 0 21 -4 37 -10 37 -5 0 -7 -14 -5
-31z"/>
<path d="M5692 3650 c0 -19 2 -27 5 -17 2 9 2 25 0 35 -3 9 -5 1 -5 -18z"/>
<path d="M3826 3631 c5 -5 25 -12 44 -15 l35 -6 -30 15 c-34 16 -64 20 -49 6z"/>
<path d="M3818 3605 c-4 -5 -4 -13 -1 -19 4 -6 9 -20 10 -31 2 -10 9 -22 15
-27 9 -5 8 -9 -4 -13 -20 -8 -12 -35 9 -35 13 0 13 3 3 15 -10 13 -9 15 11 15
29 0 84 39 57 40 -9 0 -22 -8 -27 -17 -9 -16 -12 -16 -21 -3 -5 8 -10 23 -10
33 0 9 -6 17 -14 17 -8 0 -16 7 -18 16 -2 9 -6 13 -10 9z"/>
<path d="M5020 3340 c0 -5 7 -10 16 -10 8 0 12 5 9 10 -3 6 -10 10 -16 10 -5
0 -9 -4 -9 -10z"/>
<path d="M8808 3033 c7 -3 16 -2 19 1 4 3 -2 6 -13 5 -11 0 -14 -3 -6 -6z"/>
<path d="M8959 3021 c16 -14 37 -21 65 -20 l41 0 -35 13 c-19 7 -48 16 -65 20
l-30 8 24 -21z"/>
<path d="M9249 3009 c35 -16 66 -28 68 -26 4 5 -111 57 -123 57 -5 -1 20 -14
55 -31z"/>
<path d="M9190 2971 c30 -16 66 -31 80 -35 14 -3 -6 10 -45 29 -38 19 -74 34
-80 34 -5 0 15 -13 45 -28z"/>
<path d="M8660 2961 c11 -9 4 -10 -30 -6 l-45 6 28 -16 c26 -15 32 -15 60 -1
18 9 27 16 20 16 -6 0 -20 3 -30 6 -15 5 -16 4 -3 -5z"/>
<path d="M9272 2965 c13 -13 148 -94 143 -86 -7 12 -105 76 -130 85 -11 4 -17
4 -13 1z"/>
<path d="M9190 2887 c0 -5 93 -67 145 -97 22 -13 50 -30 63 -38 44 -28 21 -5
-40 40 -56 41 -168 104 -168 95z"/>
<path d="M5808 2873 c-10 -2 -18 -9 -18 -14 0 -13 13 -11 36 6 19 14 14 17
-18 8z"/>
<path d="M9535 2809 c28 -30 64 -69 80 -87 15 -17 30 -30 33 -27 7 7 -85 111
-126 141 -33 25 -32 22 13 -27z"/>
<path d="M5995 2813 c-34 -18 -48 -34 -37 -45 11 -11 52 3 52 18 0 7 7 17 16
22 29 16 0 21 -31 5z"/>
<path d="M9520 2704 c94 -108 105 -120 120 -129 20 -12 -78 101 -126 145 -36
33 -36 32 6 -16z"/>
<path d="M5927 2726 c-8 -21 3 -27 19 -11 18 17 18 25 0 25 -8 0 -16 -6 -19
-14z"/>
<path d="M9690 2668 c60 -90 99 -137 100 -121 0 11 -136 193 -145 193 -3 0 17
-33 45 -72z"/>
<path d="M5730 2650 c-18 -16 -38 -30 -46 -30 -8 0 -14 -4 -14 -9 0 -5 -12
-12 -27 -16 -17 -4 -23 -9 -15 -14 8 -5 6 -11 -7 -21 -17 -12 -19 -40 -2 -40
4 0 43 36 88 80 45 44 75 80 68 80 -7 0 -27 -13 -45 -30z"/>
</g>
</svg>
