<?xml version="1.0" standalone="no"?>
<!DOCTYPE svg PUBLIC "-//W3C//DTD SVG 20010904//EN"
 "http://www.w3.org/TR/2001/REC-SVG-20010904/DTD/svg10.dtd">
<svg version="1.0" xmlns="http://www.w3.org/2000/svg"
 width="707.000000pt" height="494.000000pt" viewBox="0 0 707.000000 494.000000"
 preserveAspectRatio="xMidYMid meet">

<g transform="translate(0.000000,494.000000) scale(0.100000,-0.100000)"
fill="#000000" stroke="none">
<path d="M0 2471 l0 -2470 202 -1 c180 0 200 1 183 15 -11 8 -15 15 -9 15 6 0
17 -6 24 -14 9 -11 39 -15 125 -15 99 -1 114 2 118 17 4 16 5 16 6 0 1 -16 15
-18 135 -18 120 0 135 2 139 18 4 16 5 16 6 0 1 -17 154 -18 3071 -18 l3070 0
0 2470 0 2470 -3535 0 -3535 0 0 -2469z m4400 2289 c0 -4 -15 -10 -32 -12 -18
-3 -41 -8 -50 -13 -14 -5 -18 -2 -18 13 0 14 8 22 23 24 31 4 77 -3 77 -12z
m260 9 c0 -5 -2 -9 -4 -9 -2 0 -28 -5 -57 -11 -80 -16 -129 -17 -129 -1 0 9 9
12 28 8 15 -2 47 1 72 7 57 15 90 17 90 6z m150 -2 c0 -9 -11 -12 -37 -8 -35
4 -36 5 -13 12 39 11 50 10 50 -4z m75 3 c3 -5 0 -7 -8 -4 -8 3 -18 0 -22 -5
-3 -6 -11 -9 -16 -5 -5 3 -7 10 -4 15 8 12 42 12 50 -1z m170 -20 c3 -5 15
-10 26 -10 25 0 25 -32 -1 -55 -15 -14 -23 -16 -32 -7 -9 9 -5 14 13 22 24 11
24 11 1 6 -18 -3 -22 -1 -18 10 3 8 2 12 -3 9 -5 -3 -12 -1 -16 5 -7 12 2 30
15 30 5 0 12 -4 15 -10z m-870 -30 c3 -6 -5 -14 -19 -19 -13 -6 -29 -18 -35
-28 -6 -10 -11 -13 -11 -7 0 14 39 64 50 64 5 0 12 -5 15 -10z m95 0 c0 -5 -2
-10 -4 -10 -3 0 -8 5 -11 10 -3 6 -1 10 4 10 6 0 11 -4 11 -10z m-40 -10 c-8
-5 -22 -10 -30 -10 -13 0 -13 1 0 10 8 5 22 10 30 10 13 0 13 -1 0 -10z m920
-10 c0 -5 -9 -10 -21 -10 -11 0 -17 5 -14 10 3 6 13 10 21 10 8 0 14 -4 14
-10z m67 4 c-3 -3 -12 -4 -19 -1 -8 3 -5 6 6 6 11 1 17 -2 13 -5z m153 -28 c0
-3 -4 -8 -10 -11 -5 -3 -10 -1 -10 4 0 6 5 11 10 11 6 0 10 -2 10 -4z m70 -31
c16 -8 34 -24 40 -35 8 -16 1 -13 -37 12 -61 40 -59 38 -44 38 7 0 25 -7 41
-15z m-1350 -10 c-7 -8 -17 -12 -22 -9 -6 4 -5 10 3 15 22 14 33 10 19 -6z
m-55 -4 c-14 -12 -65 -23 -65 -13 0 16 13 22 44 22 17 0 26 -4 21 -9z m-85
-30 c0 -11 -9 -21 -21 -24 -15 -4 -20 -11 -15 -23 5 -14 4 -15 -8 -5 -8 7 -17
8 -20 3 -3 -5 -26 -10 -52 -10 -25 -1 -51 -5 -58 -8 -6 -3 2 6 19 20 16 14 43
28 60 32 16 4 41 15 54 25 26 21 41 17 41 -10z m1660 -71 c0 -5 -7 -7 -15 -4
-8 4 -15 8 -15 10 0 2 7 4 15 4 8 0 15 -4 15 -10z m80 -10 c0 -5 -4 -10 -10
-10 -5 0 -10 5 -10 10 0 6 5 10 10 10 6 0 10 -4 10 -10z m-1956 -9 c7 -11 -22
-23 -35 -15 -5 3 -7 10 -4 15 8 12 32 12 39 0z m2001 -1 c4 -6 10 -8 15 -5 9
6 25 -13 18 -21 -6 -6 -58 19 -58 29 0 11 18 9 25 -3z m-2115 -19 c0 -6 -4
-13 -10 -16 -5 -3 -10 1 -10 9 0 9 5 16 10 16 6 0 10 -4 10 -9z m-60 -21 c0
-5 -7 -10 -15 -10 -8 0 -15 5 -15 10 0 6 7 10 15 10 8 0 15 -4 15 -10z m-45
-36 c0 -24 -4 -29 -26 -29 -14 -1 -41 -11 -59 -22 -35 -22 -67 -20 -37 2 10 7
17 16 17 21 0 12 82 64 95 60 6 -1 10 -16 10 -32z m2327 14 c11 -18 10 -28 -2
-28 -5 0 -10 4 -10 9 0 5 -13 12 -30 16 -46 10 -51 29 -5 22 21 -3 42 -12 47
-19z m59 -54 c12 -14 11 -16 -5 -13 -11 2 -21 10 -24 17 -5 17 13 15 29 -4z
m-2531 -64 c0 -5 -5 -10 -11 -10 -5 0 -7 5 -4 10 3 6 8 10 11 10 2 0 4 -4 4
-10z m-20 -34 c0 -3 -4 -8 -10 -11 -5 -3 -10 -1 -10 4 0 6 5 11 10 11 6 0 10
-2 10 -4z m-35 -16 c-3 -5 -14 -10 -23 -10 -15 0 -15 2 -2 10 20 13 33 13 25
0z m-65 -30 c-30 -23 -50 -26 -50 -6 0 17 15 24 50 25 l25 1 -25 -20z m2880
-5 c17 -9 30 -20 30 -25 0 -15 -16 -12 -31 6 -7 9 -22 20 -34 24 -11 5 -14 9
-7 9 7 1 26 -6 42 -14z m-2932 -28 c18 -22 24 -64 12 -87 l-12 -22 -19 21
c-10 11 -19 27 -19 36 0 8 -4 15 -10 15 -14 0 -13 23 2 38 15 15 33 15 46 -1z
m2982 -17 c0 -5 -5 -10 -11 -10 -5 0 -7 5 -4 10 3 6 8 10 11 10 2 0 4 -4 4
-10z m50 -25 c19 -23 8 -26 -20 -5 -19 15 -21 20 -9 20 9 0 22 -7 29 -15z
m-3099 -33 c13 -10 32 -21 42 -25 9 -3 17 -12 17 -20 0 -19 -61 -51 -94 -49
-36 3 -76 -31 -69 -59 8 -29 -4 -23 -22 11 -15 29 -14 30 8 36 17 4 28 17 36
45 11 37 37 76 52 78 4 1 17 -7 30 -17z m-163 -157 c2 -10 0 -15 -6 -11 -6 4
-15 -1 -20 -9 -8 -15 -10 -15 -22 0 -11 13 -10 18 6 30 23 17 38 14 42 -10z
m-68 -55 c0 -20 -5 -30 -15 -30 -21 0 -37 34 -23 48 21 21 38 13 38 -18z
m3560 26 c0 -3 -4 -8 -10 -11 -5 -3 -10 -1 -10 4 0 6 5 11 10 11 6 0 10 -2 10
-4z m51 -32 c11 -14 10 -18 -6 -30 -25 -19 -39 -18 -31 2 3 9 6 22 6 30 0 19
14 18 31 -2z m-3656 -38 c11 -8 25 -12 31 -9 20 7 27 -35 10 -53 -9 -8 -16
-22 -16 -30 0 -8 -4 -13 -8 -10 -4 2 -14 1 -21 -3 -8 -5 -24 -3 -39 5 -31 16
-40 11 -22 -11 11 -13 11 -16 -1 -13 -8 2 -14 -5 -14 -14 0 -9 -4 -20 -9 -25
-12 -11 1 108 13 120 7 7 15 6 26 -3 22 -18 32 -4 12 18 -13 14 -14 21 -5 30
15 15 20 15 43 -2z m3701 -38 c3 -12 13 -28 20 -36 8 -7 14 -25 14 -40 -1 -25
-1 -26 -12 -7 -15 28 -50 55 -70 55 -23 0 -19 22 7 37 28 17 33 16 41 -9z
m-3782 -165 c4 -9 1 -20 -5 -24 -7 -4 -9 -15 -5 -24 4 -13 2 -16 -9 -11 -9 3
-15 0 -15 -9 0 -8 -4 -15 -10 -15 -5 0 -10 -5 -10 -11 0 -6 -14 -22 -31 -36
-16 -14 -28 -32 -25 -39 3 -8 -1 -14 -9 -14 -8 0 -15 -5 -15 -11 0 -5 -4 -8
-9 -5 -5 3 -11 -1 -15 -9 -3 -8 -12 -12 -21 -9 -14 6 -16 3 -19 -45 -1 -8 -6
-16 -12 -18 -6 -2 -11 16 -13 43 -2 54 40 140 65 130 8 -3 13 -2 10 2 -3 5 10
25 29 45 34 37 55 47 55 27 0 -5 5 -10 10 -10 6 0 8 10 4 24 -5 23 0 28 37 35
4 0 10 -7 13 -16z m3949 -126 c-3 -6 -11 -3 -19 8 -7 10 -11 22 -7 28 3 6 11
3 19 -8 7 -10 11 -22 7 -28z m-3229 -29 c44 -13 58 -26 51 -45 -2 -7 0 -13 5
-13 6 0 10 7 10 15 0 20 6 19 41 -6 31 -22 73 -104 64 -127 -3 -7 -9 -11 -14
-7 -6 3 -7 13 -4 22 4 11 3 14 -5 9 -8 -5 -10 -2 -6 8 7 19 -16 22 -34 4 -10
-10 -11 -6 -6 20 5 22 2 33 -7 37 -56 19 -150 9 -226 -25 -39 -18 -44 -23 -30
-29 17 -6 17 -8 3 -20 -9 -7 -13 -17 -10 -22 7 -11 1 -11 -30 1 -20 7 -31 6
-46 -7 -21 -18 -18 -35 5 -26 11 4 13 1 9 -11 -3 -9 -1 -16 5 -16 6 0 11 11
11 25 0 16 6 25 15 25 17 0 20 -25 5 -35 -5 -3 -10 -16 -10 -29 0 -32 -9 -37
-40 -21 -38 20 -51 4 -84 -99 -4 -10 -9 -17 -11 -14 -7 6 22 107 40 140 8 14
15 42 15 62 0 33 2 36 29 36 36 0 61 9 61 21 0 6 -9 5 -20 -1 -24 -13 -90 -3
-90 14 0 17 58 70 97 90 68 34 143 43 207 24z m3269 -19 c7 -27 -20 -37 -38
-13 -20 27 -18 34 9 34 15 0 26 -7 29 -21z m35 -79 c3 -21 2 -22 -12 -11 -19
16 -21 44 -3 39 6 -3 14 -15 15 -28z m-3258 -25 c0 -8 -2 -15 -4 -15 -2 0 -6
7 -10 15 -3 8 -1 15 4 15 6 0 10 -7 10 -15z m74 -70 c-19 -29 -29 -27 -19 4 3
12 13 21 21 21 12 0 12 -4 -2 -25z m-1007 -36 c10 -19 9 -27 -1 -39 -7 -8 -16
-28 -20 -43 -4 -16 -16 -38 -26 -50 -14 -14 -17 -24 -10 -32 15 -18 -3 -58
-34 -78 -17 -11 -26 -27 -26 -43 0 -41 -23 -23 -38 31 -10 34 -11 54 -4 69 6
11 14 31 17 44 5 18 11 21 31 16 24 -6 24 -5 12 22 -10 21 -10 28 0 32 6 2 20
20 29 40 32 67 48 75 70 31z m1033 16 c-10 -12 -10 -18 0 -30 7 -8 19 -15 26
-15 26 0 14 -18 -16 -25 -16 -4 -39 -20 -51 -36 -19 -28 -49 -40 -49 -20 0 5
18 25 40 44 46 39 53 62 15 47 -14 -5 -25 -6 -25 -1 0 4 11 13 25 19 14 6 25
16 25 22 0 5 5 10 11 10 8 0 8 -5 -1 -15z m50 -4 c0 -10 -30 -24 -37 -17 -3 3
-2 9 2 15 8 13 35 15 35 2z m3094 -36 c3 -9 -1 -18 -10 -22 -19 -7 -26 0 -18
21 8 20 20 21 28 1z m49 -55 c21 -24 22 -37 3 -21 -11 9 -15 9 -19 -1 -2 -7
-8 -9 -13 -5 -5 4 -2 12 6 17 14 9 7 14 -13 11 -5 -1 -6 3 -2 9 9 15 19 12 38
-10z m-3163 -10 c0 -13 -5 -18 -15 -14 -10 4 -15 0 -15 -14 0 -26 -63 -48 -89
-31 -15 10 -14 10 0 6 10 -3 33 10 59 34 47 44 60 48 60 19z m3220 -80 c-20
-13 -33 -13 -25 0 3 6 14 10 23 10 15 0 15 -2 2 -10z m-3289 -12 c16 11 20 11
17 1 -2 -7 -12 -17 -21 -23 -13 -8 -20 -7 -27 4 -5 8 -10 20 -10 25 0 6 5 3
10 -5 8 -13 13 -13 31 -2z m3319 -33 c0 -10 -10 -15 -30 -15 -36 0 -38 7 -7
20 32 13 37 12 37 -5z m-3340 -45 c0 -11 -4 -20 -9 -20 -5 0 -7 9 -4 20 3 11
7 20 9 20 2 0 4 -9 4 -20z m3357 -21 c13 -33 9 -54 -8 -44 -5 4 -9 15 -9 26 0
10 -4 19 -9 19 -5 0 -11 7 -15 15 -3 10 1 15 12 15 11 0 22 -13 29 -31z
m-3357 -30 c0 -5 -4 -9 -10 -9 -5 0 -10 7 -10 16 0 8 5 12 10 9 6 -3 10 -10
10 -16z m-1064 -86 c-1 -35 -6 -58 -14 -61 -6 -2 -12 -14 -12 -27 0 -13 -4
-26 -9 -29 -5 -3 -7 -15 -4 -25 3 -10 0 -22 -6 -25 -7 -5 -6 -15 5 -32 11 -16
12 -24 4 -24 -18 0 -38 24 -56 70 -15 37 -16 50 -5 88 6 25 21 57 31 72 11 16
20 32 20 37 0 5 5 14 12 21 21 21 35 -5 34 -65z m705 -14 c-5 -13 -10 -19 -10
-12 -1 15 10 45 15 40 3 -2 0 -15 -5 -28z m3679 -49 c0 -9 -32 -30 -46 -30 -4
0 1 9 11 20 19 21 35 26 35 10z m-3797 -55 c-10 -13 -22 -25 -27 -25 -5 0 1
11 14 25 30 32 36 32 13 0z m3802 -9 c-25 -18 -11 -40 15 -24 24 15 37 4 20
-17 -17 -20 -26 -19 -50 5 -16 16 -18 25 -10 39 11 22 33 32 39 19 1 -5 -5
-15 -14 -22z m-3734 0 c-7 -8 -10 -20 -6 -26 4 -6 -2 -21 -12 -33 -11 -12 -29
-43 -39 -69 -10 -27 -23 -48 -27 -48 -4 0 -3 9 3 19 13 25 13 34 0 26 -5 -3
-10 -3 -10 1 0 11 60 116 78 137 18 21 30 14 13 -7z m-151 -39 c0 -2 -10 -12
-22 -23 l-23 -19 19 23 c18 21 26 27 26 19z m3942 -107 c1 -28 0 -50 -3 -50
-6 0 -49 83 -49 95 0 3 11 5 24 5 22 0 24 -5 28 -50z m-4427 -40 c-4 -17 -11
-30 -16 -30 -14 0 -11 -26 5 -39 7 -6 16 -34 20 -61 4 -28 9 -57 13 -66 5 -14
3 -14 -15 -3 -29 18 -62 89 -62 133 0 46 41 130 53 110 5 -8 5 -28 2 -44z
m869 -4 c-21 -15 -30 -14 -19 3 3 6 14 11 23 11 13 0 13 -2 -4 -14z m-218 -13
c15 -20 18 -33 7 -33 -5 0 -13 11 -20 25 -13 29 -6 33 13 8z m-40 -50 c-11
-11 -17 4 -9 23 7 18 8 18 11 1 2 -10 1 -21 -2 -24z m-10 -53 c-12 -14 -30
-36 -39 -50 -25 -36 -22 0 3 42 12 21 27 34 40 34 19 0 19 -1 -4 -26z m29 -10
c3 -5 1 -10 -4 -10 -6 0 -11 5 -11 10 0 6 2 10 4 10 3 0 8 -4 11 -10z m3754
-86 c12 -60 12 -68 -3 -79 -21 -16 -20 -25 2 -25 27 0 30 -6 23 -47 -6 -39
-31 -59 -31 -25 0 11 -7 22 -15 26 -11 4 -14 13 -9 32 4 17 2 29 -6 34 -20 13
-16 88 6 105 15 11 17 16 7 26 -7 7 -13 22 -13 34 1 40 25 -10 39 -81z m-4045
-79 c-25 -19 -40 -19 -24 0 7 8 20 15 28 15 13 0 12 -3 -4 -15z m-101 -73
c-55 -49 -103 -85 -103 -77 0 13 116 115 130 115 9 0 -3 -16 -27 -38z m4001
-198 c6 -26 3 -34 -20 -49 l-27 -17 7 28 c4 16 9 40 10 54 2 14 4 30 5 35 3
15 18 -16 25 -51z m2 -76 c-3 -13 -6 -31 -6 -40 0 -23 -46 -76 -84 -95 -31
-16 -31 -15 -13 4 9 11 17 27 17 37 0 9 5 14 10 11 6 -3 10 3 10 14 0 11 5 23
10 26 6 3 10 15 10 25 0 18 24 39 44 40 4 0 6 -10 2 -22z m-1636 -1301 c8 -39
8 -62 1 -74 -9 -15 -11 -14 -11 12 -1 17 -9 62 -19 100 -11 39 -16 74 -13 79
7 12 26 -43 42 -117z m-113 41 c-3 -8 -6 -5 -6 6 -1 11 2 17 5 13 3 -3 4 -12
1 -19z m36 -49 c-4 -14 0 -27 11 -35 10 -7 15 -17 11 -23 -10 -18 -25 -13 -25
8 0 11 -4 23 -10 26 -15 9 -12 45 4 45 10 0 12 -7 9 -21z m-1593 -29 c0 -5 -4
-10 -10 -10 -5 0 -10 5 -10 10 0 6 5 10 10 10 6 0 10 -4 10 -10z m-275 -10
c-3 -5 -11 -10 -16 -10 -6 0 -7 5 -4 10 3 6 11 10 16 10 6 0 7 -4 4 -10z m55
-60 c0 -5 -5 -10 -11 -10 -5 0 -7 5 -4 10 3 6 8 10 11 10 2 0 4 -4 4 -10z
m670 -20 c0 -5 -4 -10 -10 -10 -5 0 -10 5 -10 10 0 6 5 10 10 10 6 0 10 -4 10
-10z m1180 -4 c0 -3 -4 -8 -10 -11 -5 -3 -10 -1 -10 4 0 6 5 11 10 11 6 0 10
-2 10 -4z m-1115 -66 c-3 -5 -10 -10 -16 -10 -5 0 -9 5 -9 10 0 6 7 10 16 10
8 0 12 -4 9 -10z m-1001 -230 c-6 -5 -24 21 -24 34 0 6 6 1 14 -10 8 -10 12
-21 10 -24z m716 -80 c0 -5 -2 -10 -4 -10 -3 0 -8 5 -11 10 -3 6 -1 10 4 10 6
0 11 -4 11 -10z m-1060 -15 c0 -8 -2 -15 -4 -15 -2 0 -6 7 -10 15 -3 8 -1 15
4 15 6 0 10 -7 10 -15z m-1801 -32 c-1 -34 -2 -35 -9 -13 -11 36 -11 50 0 50
6 0 10 -17 9 -37z m-364 18 c3 -5 1 -12 -5 -16 -5 -3 -10 1 -10 9 0 18 6 21
15 7z m2485 0 c0 -5 -7 -12 -16 -15 -14 -5 -15 -4 -4 9 14 17 20 19 20 6z
m-2250 -23 c0 -19 -2 -20 -10 -8 -13 19 -13 30 0 30 6 0 10 -10 10 -22z m-425
-6 c-3 -3 -11 0 -18 7 -9 10 -8 11 6 5 10 -3 15 -9 12 -12z m634 -36 c-9 -8
-10 -7 -5 7 3 10 7 26 7 35 1 9 4 6 6 -7 3 -13 -1 -28 -8 -35z m461 28 c0 -14
-4 -23 -10 -19 -5 3 -10 15 -10 26 0 10 5 19 10 19 6 0 10 -12 10 -26z m-1316
-17 c8 -31 -1 -33 -23 -6 -26 30 -26 38 -2 32 11 -3 22 -14 25 -26z m286 12
c0 -14 -17 -10 -23 5 -4 10 -1 13 9 9 7 -3 14 -9 14 -14z m320 -9 c0 -5 -5
-10 -11 -10 -5 0 -7 5 -4 10 3 6 8 10 11 10 2 0 4 -4 4 -10z m2320 -42 c0 -13
-23 -5 -28 10 -2 7 2 10 12 6 9 -3 16 -11 16 -16z"/>
</g>
</svg>
