<?xml version="1.0" standalone="no"?>
<!DOCTYPE svg PUBLIC "-//W3C//DTD SVG 20010904//EN"
 "http://www.w3.org/TR/2001/REC-SVG-20010904/DTD/svg10.dtd">
<svg version="1.0" xmlns="http://www.w3.org/2000/svg"
 width="1067.000000pt" height="800.000000pt" viewBox="0 0 1067.000000 800.000000"
 preserveAspectRatio="xMidYMid meet">

<g transform="translate(0.000000,800.000000) scale(0.100000,-0.100000)"
fill="#000000" stroke="none">
<path d="M0 4621 l0 -3379 128 45 c70 25 156 55 190 68 35 13 79 21 98 20 19
-2 34 1 34 6 0 17 20 9 21 -8 0 -10 3 -13 5 -7 3 7 15 9 27 6 21 -5 21 -5 4
15 -17 20 -17 21 13 26 16 4 43 4 59 1 22 -5 36 1 65 26 20 18 36 27 36 22 0
-6 -5 -14 -10 -17 -6 -3 -10 -22 -10 -41 0 -21 4 -33 10 -29 6 4 7 11 4 17 -5
7 -2 9 8 6 9 -4 14 0 14 11 1 83 2 87 52 113 26 14 60 29 76 32 17 4 35 13 40
20 6 8 66 56 134 107 187 143 233 176 282 206 80 48 184 126 235 176 42 42 57
50 95 54 25 2 58 13 74 25 24 17 32 19 49 9 23 -15 34 -7 19 12 -19 23 33 39
135 43 70 3 108 10 155 29 34 14 66 25 72 25 6 0 95 27 196 61 102 33 230 73
285 89 55 15 120 35 145 44 52 17 298 92 350 106 120 32 137 33 211 20 85 -15
341 -22 372 -11 11 4 49 3 84 -4 43 -8 65 -9 73 -1 7 7 14 6 22 -2 7 -7 21
-12 32 -12 23 0 343 -59 366 -67 17 -6 25 -8 90 -21 72 -15 241 -60 295 -80
45 -16 50 -21 52 -51 2 -18 7 -40 13 -49 8 -13 9 -4 5 32 l-5 48 33 -25 c17
-14 31 -30 29 -36 -1 -6 2 -11 8 -11 5 0 10 -5 10 -10 0 -6 -5 -9 -11 -8 -6 2
-14 -3 -16 -10 -4 -11 -1 -12 15 -3 11 6 22 8 25 3 2 -4 3 -2 1 3 -1 6 6 11
15 11 18 0 20 -15 7 -53 -4 -14 -12 -20 -22 -16 -28 11 -13 -12 17 -26 21 -9
27 -16 18 -21 -7 -5 -19 -6 -27 -2 -10 3 -13 1 -8 -6 4 -7 3 -12 -3 -12 -13 0
-22 16 -26 46 -3 29 -4 31 -29 36 -10 1 -21 -3 -24 -11 -3 -9 1 -11 15 -7 17
5 20 1 20 -25 0 -22 -3 -26 -9 -15 -10 17 -42 10 -35 -8 3 -7 -4 -13 -15 -13
-19 -2 -19 -1 -4 16 9 10 16 21 16 24 0 12 -23 7 -41 -9 -13 -12 -19 -12 -25
-3 -4 7 -3 10 3 6 11 -7 28 20 24 36 -1 5 3 6 8 3 5 -4 12 -2 15 3 6 10 -33
23 -46 15 -4 -3 -8 -11 -8 -19 0 -7 -7 -15 -15 -19 -8 -3 -15 -1 -15 4 0 6 4
10 8 10 5 0 9 7 9 15 0 15 -26 30 -35 20 -3 -3 0 -5 8 -5 10 0 10 -3 0 -15 -7
-8 -17 -12 -22 -9 -6 4 -5 -4 1 -17 9 -18 5 -16 -17 9 -17 19 -29 41 -27 50 1
9 0 11 -2 5 -7 -21 -26 -14 -20 7 3 11 1 18 -4 14 -5 -3 -9 2 -9 10 0 11 -6
13 -29 6 -19 -5 -33 -4 -40 3 -14 14 -15 30 -1 22 6 -3 10 -1 10 4 0 14 -17
14 -26 0 -3 -6 -1 -16 5 -22 6 -6 11 -19 11 -28 0 -14 -6 -16 -31 -12 -24 3
-29 2 -23 -9 6 -11 5 -11 -8 0 -13 10 -17 10 -22 -3 -3 -9 -2 -13 4 -10 6 3 7
-1 4 -10 -5 -11 -10 -13 -19 -5 -6 5 -15 6 -20 2 -4 -4 -5 3 -2 16 3 12 2 22
-3 22 -8 0 -23 -27 -24 -45 -2 -17 -43 -17 -50 0 -5 13 -1 15 17 10 20 -5 20
-5 3 6 -13 8 -15 13 -6 19 8 5 7 9 -4 13 -9 4 -16 2 -16 -4 0 -6 -5 -7 -12 -3
-7 4 -8 3 -4 -5 4 -6 0 -14 -8 -17 -23 -9 -66 4 -66 20 0 17 -29 43 -31 27 -1
-6 -2 -16 -3 -23 -2 -18 -22 -20 -35 -4 -7 8 -21 12 -32 9 -12 -4 -25 0 -29 7
-10 17 -67 22 -76 8 -5 -7 -2 -8 7 -3 8 5 10 4 6 0 -14 -16 -37 -14 -37 3 0
13 -2 14 -9 3 -7 -10 -12 -8 -24 9 -9 13 -16 17 -19 10 -2 -8 -9 -6 -18 6 -12
14 -12 16 -1 9 9 -5 12 -4 7 3 -3 6 -22 9 -41 8 -19 -2 -36 2 -39 8 -2 6 -5 1
-5 -12 -1 -13 -5 -21 -10 -18 -5 3 -8 -9 -6 -27 3 -39 -19 -67 -46 -60 -24 7
-44 39 -29 48 5 3 10 2 10 -2 0 -5 9 -14 21 -21 19 -12 19 -11 9 8 -6 11 -16
20 -22 20 -6 0 -8 10 -5 23 6 22 6 22 -10 2 -10 -13 -17 -16 -20 -8 -2 7 -11
9 -19 6 -8 -3 -14 -1 -14 4 0 6 -13 10 -30 9 -24 -1 -30 -6 -30 -23 0 -16 -8
-23 -29 -28 -21 -4 -28 -11 -24 -21 4 -10 0 -12 -11 -8 -8 3 -14 11 -13 16 1
6 -4 13 -10 15 -7 3 -13 -3 -13 -12 0 -12 -5 -10 -23 9 -16 17 -27 22 -38 15
-11 -7 -11 -9 -1 -9 21 0 45 -29 38 -45 -3 -8 -12 -15 -21 -15 -8 0 -15 -5
-15 -11 0 -5 -5 -7 -10 -4 -6 4 -18 1 -26 -6 -8 -6 -27 -13 -42 -15 -15 -1
-37 -5 -49 -8 -16 -3 -20 -1 -16 10 3 8 0 14 -7 14 -6 0 -19 7 -27 16 -10 10
-25 13 -39 10 -18 -5 -22 -3 -18 9 4 8 1 15 -6 15 -6 0 -8 -5 -5 -10 8 -12
-42 -33 -58 -23 -7 4 -8 0 -4 -11 4 -9 3 -15 -2 -11 -5 3 -11 1 -13 -5 -2 -6
-14 -4 -30 4 -24 13 -26 12 -21 -2 4 -8 2 -13 -3 -9 -6 3 -16 2 -24 -3 -9 -5
-20 -4 -29 3 -11 9 -13 9 -8 0 11 -17 -11 -27 -29 -13 -12 11 -14 9 -12 -11 3
-20 -1 -23 -19 -21 -13 2 -23 -1 -23 -6 0 -5 -19 -8 -41 -8 -25 1 -44 -4 -46
-11 -3 -7 -9 -10 -14 -7 -5 3 -9 0 -9 -7 0 -7 -7 -4 -16 7 -14 17 -15 17 -10
1 5 -15 3 -16 -14 -7 -16 8 -20 8 -18 -2 2 -8 -6 -12 -19 -11 -13 2 -23 -3
-23 -10 -1 -6 -9 -2 -19 10 -16 19 -20 20 -25 7 -3 -8 -2 -12 4 -9 6 3 10 -1
10 -9 0 -19 -30 -22 -30 -3 -1 7 -6 5 -14 -6 -9 -12 -16 -14 -21 -8 -3 6 -1
11 4 11 6 0 11 5 11 10 0 6 -8 5 -20 -2 -14 -9 -18 -19 -13 -38 6 -23 5 -24
-12 -10 -15 12 -17 12 -10 1 6 -11 4 -13 -8 -8 -10 3 -17 2 -17 -4 0 -6 -5 -7
-11 -4 -6 4 -8 14 -5 22 3 8 2 11 -3 8 -5 -3 -12 -1 -16 5 -9 15 -28 12 -22
-3 8 -20 -79 -22 -99 -2 -20 19 -38 20 -30 0 3 -8 2 -14 -2 -14 -19 3 -33 -2
-27 -10 6 -11 -7 -21 -37 -26 -12 -3 -25 -10 -29 -16 -5 -8 -8 -8 -13 0 -12
19 -26 1 -20 -24 5 -21 3 -23 -18 -18 -12 4 -26 11 -30 17 -5 7 -8 5 -8 -5 0
-15 -22 -28 -55 -33 -5 -1 -13 5 -17 14 -5 11 -7 9 -7 -8 l-1 -23 -21 20 c-12
11 -19 27 -16 35 3 8 -1 17 -10 20 -11 5 -14 2 -8 -11 3 -10 8 -32 10 -49 4
-26 0 -33 -21 -43 -21 -9 -31 -9 -48 3 -21 13 -54 20 -82 17 -12 -1 -41 -60
-36 -74 1 -4 -4 -15 -12 -22 -11 -11 -15 -12 -19 -2 -2 6 -8 0 -12 -15 -4 -16
-11 -28 -17 -28 -5 0 -7 4 -4 9 12 19 -23 19 -40 0 -9 -10 -22 -19 -28 -18
-35 4 -54 -3 -59 -22 -4 -17 -3 -19 6 -10 6 6 16 11 21 11 6 -1 0 -9 -13 -20
-12 -11 -27 -17 -32 -14 -5 3 -9 0 -9 -6 0 -6 -5 -8 -10 -5 -6 4 -7 11 -4 17
4 6 3 8 -2 5 -6 -3 -9 -21 -9 -41 1 -19 -2 -33 -7 -30 -5 3 -6 15 -3 27 5 21
5 21 -6 0 -14 -27 -41 -31 -37 -5 2 12 -4 17 -24 18 -16 1 -28 0 -28 -2 0 -2
11 -15 25 -30 29 -32 31 -42 8 -40 -11 0 -18 -6 -18 -19 0 -16 -6 -20 -31 -18
-29 3 -31 0 -27 -25 3 -26 3 -27 -7 -3 -8 18 -15 22 -33 17 -12 -3 -28 -6 -35
-6 -7 0 -10 -4 -7 -10 3 -5 1 -10 -4 -10 -6 0 -11 -9 -11 -20 0 -11 -8 -24
-17 -27 -26 -10 -60 -47 -65 -69 -2 -12 -12 -19 -28 -19 -16 0 -29 -9 -37 -25
-7 -14 -13 -21 -13 -17 0 15 -79 -77 -80 -93 -1 -8 -8 1 -15 20 l-14 35 1 -42
c2 -37 -3 -48 -36 -83 -22 -24 -42 -37 -49 -33 -8 5 -7 9 5 11 9 2 19 10 22
19 5 13 4 14 -9 3 -10 -8 -15 -9 -15 -1 0 6 5 12 10 12 6 1 15 3 20 4 6 1 16
3 23 4 9 1 8 4 -2 10 -12 8 -28 6 -86 -14 -11 -3 -3 3 17 15 39 21 52 38 21
25 -10 -4 -36 -9 -57 -11 -22 -2 -44 -8 -50 -14 -6 -6 -16 -4 -28 7 -21 18
-31 13 -33 -19 -2 -33 -18 -32 -37 2 -9 17 -23 30 -30 30 -8 0 -6 -5 4 -11 22
-12 23 -35 4 -42 -10 -4 -13 -1 -9 9 4 10 1 14 -9 12 -9 -2 -25 8 -36 22 -11
14 -23 22 -27 19 -3 -4 2 -15 12 -25 13 -13 15 -18 5 -22 -10 -3 -8 -8 5 -18
16 -13 15 -13 -10 -4 -16 6 -33 8 -38 4 -8 -5 -13 9 -10 29 2 11 -14 8 -27 -5
-9 -9 -12 -9 -12 3 0 12 -2 12 -9 0 -6 -9 -15 -11 -27 -6 -11 5 -21 8 -24 7
-3 0 -7 8 -7 19 -1 12 -7 27 -14 35 -12 15 -54 20 -45 5 11 -18 -19 -30 -44
-18 -25 13 -39 37 -20 37 6 0 9 -4 6 -9 -3 -5 1 -12 10 -15 22 -9 23 -8 16 16
-4 17 -2 20 11 15 21 -8 22 0 2 19 -12 12 -15 12 -15 2 0 -8 -5 -6 -11 5 -8
13 -7 22 1 32 9 10 6 15 -10 20 -29 9 -35 1 -32 -43 2 -25 0 -33 -6 -23 -8 11
-11 10 -16 -7 -7 -21 -36 -39 -36 -22 0 6 5 10 10 10 6 0 10 7 10 15 0 9 7 18
15 21 21 9 19 20 -5 20 -18 0 -24 -8 -21 -28 0 -5 -5 -9 -11 -9 -7 -1 -19 -2
-27 -3 -19 -2 -35 -46 -17 -46 7 0 19 -7 26 -15 9 -10 9 -15 1 -15 -6 0 -11
-5 -11 -11 0 -6 6 -9 14 -6 8 3 16 -2 19 -12 4 -16 0 -17 -22 -11 -20 5 -25
12 -23 32 2 18 -4 28 -23 36 -34 15 -48 15 -39 0 4 -7 -2 -5 -13 5 -19 16 -21
16 -27 2 -3 -9 -3 -22 1 -27 3 -7 1 -8 -5 -4 -7 4 -12 2 -12 -3 0 -6 5 -11 12
-11 6 0 9 -3 5 -6 -3 -3 -19 0 -34 8 -35 18 -67 10 -53 -12 9 -13 11 -13 20 0
9 12 10 12 8 -5 -1 -11 1 -26 5 -32 5 -9 3 -13 -7 -13 -9 0 -16 6 -16 14 0 20
-27 39 -42 30 -12 -8 -16 -10 -36 -13 -28 -4 -31 -66 -32 -614 l0 -557 4090 0
4090 0 20 20 c12 12 25 18 30 15 6 -4 10 -3 10 2 0 4 16 9 35 9 19 1 32 -3 29
-7 -3 -5 3 -9 13 -10 10 0 0 -6 -22 -14 -33 -11 159 -13 1168 -14 l1207 -1 0
4000 0 4000 -5335 0 -5335 0 0 -3379z m4230 2378 c0 -5 -4 -9 -10 -9 -5 0 -10
7 -10 16 0 8 5 12 10 9 6 -3 10 -10 10 -16z m635 -399 c3 -5 2 -10 -4 -10 -5
0 -17 -3 -27 -7 -16 -6 -17 -5 -4 10 17 19 26 21 35 7z m-232 -167 c-7 -2 -19
-2 -25 0 -7 3 -2 5 12 5 14 0 19 -2 13 -5z m237 -83 c0 -13 -32 -28 -48 -23
-10 4 -6 9 10 18 29 16 38 18 38 5z m-520 -101 c0 -6 7 -8 15 -5 9 3 18 -1 21
-9 4 -8 9 -13 13 -10 14 8 51 -26 51 -46 0 -18 2 -19 15 -5 8 8 15 22 15 31 0
9 5 13 10 10 6 -4 18 -1 27 7 12 9 15 9 9 1 -4 -8 -2 -13 6 -13 9 -1 8 -4 -3
-13 -9 -7 -14 -17 -12 -24 4 -11 -45 -43 -67 -43 -6 0 -21 9 -33 21 -35 34
-108 62 -154 60 -24 -1 -43 2 -43 6 0 4 25 8 55 9 34 1 52 -3 48 -9 -3 -6 -1
-7 5 -4 5 4 8 16 5 27 -3 11 0 20 6 20 6 0 11 -5 11 -11z m-320 -80 c0 -6 -4
-7 -10 -4 -5 3 -10 11 -10 16 0 6 5 7 10 4 6 -3 10 -11 10 -16z m314 -18 c3
-5 0 -14 -8 -20 -10 -9 -15 -8 -19 3 -9 22 15 37 27 17z m-244 -36 c0 -8 -2
-15 -4 -15 -2 0 -6 7 -10 15 -3 8 -1 15 4 15 6 0 10 -7 10 -15z m560 5 c-12
-8 -12 -10 -1 -10 8 0 12 -2 9 -5 -3 -3 -13 -3 -22 1 -19 7 -11 24 12 24 15 0
15 -2 2 -10z m-30 -28 c0 -4 -21 -18 -47 -32 -43 -23 -45 -25 -22 -31 13 -4
18 -7 10 -8 -7 -1 -35 -12 -63 -26 -27 -14 -55 -25 -63 -25 -7 0 -18 -7 -25
-15 -7 -8 -22 -15 -34 -15 -17 1 -13 6 19 25 22 14 45 25 51 25 18 0 95 81 87
93 -3 6 -1 7 5 3 7 -4 12 -2 12 4 0 6 4 9 9 6 5 -3 12 1 15 9 4 13 10 14 26 5
11 -6 20 -14 20 -18z m-530 -18 c0 -8 -5 -12 -10 -9 -6 4 -8 11 -5 16 9 14 15
11 15 -7z m365 -14 c-2 -40 -30 -69 -65 -68 l-28 1 35 48 c40 56 61 63 58 19z
m402 -2 c-18 -11 -27 -10 -24 5 1 7 -6 11 -18 9 -15 -2 -16 0 -7 6 9 6 23 5
37 -2 16 -7 20 -13 12 -18z m163 6 c0 -2 -7 -4 -15 -4 -8 0 -15 4 -15 10 0 5
7 7 15 4 8 -4 15 -8 15 -10z m-320 -4 c0 -5 -2 -10 -4 -10 -3 0 -8 5 -11 10
-3 6 -1 10 4 10 6 0 11 -4 11 -10z m26 -5 c-4 -12 0 -14 19 -11 14 3 23 1 20
-5 -4 -5 1 -9 9 -9 10 0 13 6 9 17 -5 12 -3 14 8 7 20 -12 81 -13 97 -1 8 6
12 6 12 -3 0 -7 7 -10 18 -5 12 4 14 3 6 -5 -6 -5 -28 -12 -50 -14 -62 -7 -93
-17 -88 -29 2 -8 -9 -13 -30 -14 -27 -2 -33 1 -32 15 0 9 8 23 16 29 14 12
-66 -17 -102 -38 -12 -6 -18 -6 -18 1 0 5 9 14 20 20 11 6 18 15 16 19 -3 4 5
6 18 4 17 -4 27 1 35 16 13 24 26 29 17 6z m259 -15 c3 -5 -3 -10 -15 -10 -12
0 -18 5 -15 10 3 6 10 10 15 10 5 0 12 -4 15 -10z m62 4 c-3 -3 -12 -4 -19 -1
-8 3 -5 6 6 6 11 1 17 -2 13 -5z m53 -14 c19 -12 -5 -16 -62 -10 -22 2 -22 2
2 10 35 11 43 11 60 0z m-1253 -15 c0 -8 -4 -15 -9 -15 -10 0 -11 14 -1 23 9
10 10 9 10 -8z m1313 -4 c0 -5 -9 -7 -20 -4 -11 3 -20 7 -20 9 0 2 9 4 20 4
11 0 20 -4 20 -9z m-1063 -36 c-1 -42 10 -55 49 -58 19 -2 30 -9 32 -21 3 -15
1 -16 -16 -7 -11 6 -22 7 -26 4 -3 -3 -6 -1 -6 6 0 9 -8 11 -21 8 -12 -3 -28
0 -35 8 -8 7 -19 16 -26 18 -10 4 -10 7 0 15 8 5 13 13 12 18 -1 4 7 11 17 15
13 6 14 8 3 8 -13 1 -13 2 0 11 8 5 16 10 17 10 0 0 1 -16 0 -35z m69 -5 c8 0
14 -4 14 -9 0 -5 19 -8 42 -8 52 1 62 -19 14 -28 -27 -6 -41 -2 -62 14 -15 12
-36 21 -48 22 -11 0 -16 3 -10 5 7 3 10 15 7 27 l-5 22 16 -22 c10 -13 24 -23
32 -23z m554 36 c0 -2 -7 -7 -16 -10 -8 -3 -12 -2 -9 4 6 10 25 14 25 6z m120
-6 c0 -5 -4 -10 -10 -10 -5 0 -10 5 -10 10 0 6 5 10 10 10 6 0 10 -4 10 -10z
m42 -2 c-9 -9 -15 -9 -24 0 -9 9 -7 12 12 12 19 0 21 -3 12 -12z m91 -1 c-3
-4 -11 -6 -19 -3 -8 3 -14 1 -14 -4 0 -5 6 -10 13 -13 6 -2 1 -2 -11 0 -15 2
-21 0 -17 -6 3 -7 0 -8 -9 -5 -9 3 -16 10 -16 16 0 5 4 7 9 4 5 -3 14 1 21 8
12 15 52 18 43 3z m37 3 c0 -5 -5 -10 -11 -10 -5 0 -7 5 -4 10 3 6 8 10 11 10
2 0 4 -4 4 -10z m-639 -20 c6 0 7 -5 3 -11 -3 -6 -17 -8 -30 -5 -17 5 -23 2
-22 -6 2 -7 -5 -12 -14 -10 -12 2 -16 -2 -12 -13 3 -8 1 -15 -5 -15 -6 0 -11
12 -11 26 0 14 4 23 10 19 6 -3 10 -2 10 4 0 11 29 20 48 15 8 -2 18 -4 23 -4z
m284 -10 c-3 -5 -14 -10 -23 -10 -15 0 -15 -2 -2 -11 12 -8 11 -9 -6 -5 -11 4
-52 -5 -90 -20 -89 -33 -119 -40 -110 -25 4 6 18 11 31 11 13 0 31 7 40 16 8
9 48 24 88 34 39 10 73 18 75 19 2 1 0 -3 -3 -9z m368 3 c-7 -2 -19 -2 -25 0
-7 3 -2 5 12 5 14 0 19 -2 13 -5z m-293 -17 c0 -3 -4 -8 -10 -11 -5 -3 -10 -1
-10 4 0 6 5 11 10 11 6 0 10 -2 10 -4z m60 0 c0 -9 -30 -14 -35 -6 -4 6 3 10
14 10 12 0 21 -2 21 -4z m177 -12 c-3 -3 -12 -4 -19 -1 -8 3 -5 6 6 6 11 1 17
-2 13 -5z m-370 -20 c-3 -3 -12 -4 -19 -1 -8 3 -5 6 6 6 11 1 17 -2 13 -5z
m-270 -20 c-3 -3 -12 -4 -19 -1 -8 3 -5 6 6 6 11 1 17 -2 13 -5z m666 -1 c-7
-2 -21 -2 -30 0 -10 3 -4 5 12 5 17 0 24 -2 18 -5z m-716 -19 c-3 -3 -12 -4
-19 -1 -8 3 -5 6 6 6 11 1 17 -2 13 -5z m-307 -18 c0 -8 -4 -18 -10 -21 -5 -3
-10 -4 -10 -1 0 2 -3 11 -6 20 -4 11 -1 16 10 16 9 0 16 -6 16 -14z m245 -6
c3 -5 1 -10 -4 -10 -6 0 -11 5 -11 10 0 6 2 10 4 10 3 0 8 -4 11 -10z m215 0
c-20 -13 -63 -13 -55 0 3 6 21 10 38 10 24 0 28 -3 17 -10z m-75 -10 c-3 -5
-16 -10 -28 -9 -20 1 -20 2 3 9 14 4 26 8 28 9 2 1 0 -3 -3 -9z m873 -2 c-29
-10 -38 -28 -15 -28 8 0 14 -6 14 -14 0 -10 -8 -12 -26 -7 -36 9 -73 2 -65
-12 3 -7 -1 -4 -9 5 -8 10 -17 15 -20 11 -4 -3 -7 -2 -7 4 0 5 14 10 30 11 17
0 43 10 58 21 15 11 36 20 47 20 15 0 14 -3 -7 -11z m-943 -9 c11 -17 -1 -21
-15 -4 -8 9 -8 15 -2 15 6 0 14 -5 17 -11z m-157 -11 c21 -21 13 -29 -11 -13
-13 8 -27 12 -32 8 -4 -5 -5 -2 -1 5 9 15 28 16 44 0z m507 -8 c-3 -5 -11 -10
-16 -10 -6 0 -7 5 -4 10 3 6 11 10 16 10 6 0 7 -4 4 -10z m165 7 c-8 -8 -150
-14 -150 -7 0 4 35 8 77 9 43 1 75 0 73 -2z m-590 -17 c0 -5 -5 -10 -11 -10
-5 0 -7 5 -4 10 3 6 8 10 11 10 2 0 4 -4 4 -10z m-24 -17 c21 -28 16 -39 -6
-15 -11 12 -20 24 -20 27 0 11 13 4 26 -12z m442 -9 c24 -14 25 -14 8 0 -19
15 -18 16 17 16 20 0 37 -4 37 -10 0 -5 -8 -10 -17 -10 -16 0 -16 -2 -3 -11
11 -8 0 -9 -40 -4 -30 4 -64 8 -75 9 -11 2 -29 7 -40 13 -11 6 -25 8 -32 6 -6
-2 -14 1 -18 7 -10 17 130 3 163 -16z m369 20 c-3 -3 -12 -4 -19 -1 -8 3 -5 6
6 6 11 1 17 -2 13 -5z m-237 -14 c-36 -12 -62 -12 -55 0 3 6 23 10 43 9 33 -1
34 -2 12 -9z m630 -12 c0 -5 0 -12 0 -17 0 -5 -9 -7 -20 -4 -11 3 -17 9 -14
14 3 5 -2 9 -10 9 -9 0 -16 4 -16 9 0 5 14 6 30 2 17 -3 31 -9 30 -13z m-272
-28 c15 -1 15 -2 -1 -14 -17 -13 -17 -15 4 -35 15 -14 26 -18 34 -11 7 5 15 7
18 3 4 -3 7 -1 7 6 0 9 -9 12 -25 9 -22 -5 -24 -3 -18 21 3 14 7 28 9 29 5 7
84 -10 84 -18 0 -4 -9 -6 -20 -3 -11 3 -20 0 -20 -6 0 -6 5 -11 12 -11 9 0 9
-3 0 -12 -7 -7 -12 -16 -12 -22 0 -5 9 1 19 13 12 14 29 21 43 20 13 -2 29 1
37 5 10 6 12 5 7 -2 -5 -8 1 -12 16 -11 13 0 17 3 11 6 -7 2 -13 10 -13 17 0
10 16 12 58 9 39 -2 52 0 42 6 -20 14 -6 24 20 16 13 -4 19 -12 16 -21 -3 -9
-1 -12 4 -9 6 3 10 1 10 -5 0 -6 4 -9 9 -6 5 3 8 -5 7 -19 -1 -18 -5 -24 -16
-19 -47 19 -46 19 -31 1 7 -9 19 -17 25 -17 6 0 23 -7 39 -14 31 -17 34 -11
10 18 -10 11 1 5 25 -13 23 -18 40 -37 36 -42 -6 -10 -47 -3 -82 14 -15 7 -26
8 -30 1 -8 -11 -64 -15 -57 -4 3 5 -8 11 -25 15 -35 8 -41 7 -37 -2 1 -5 6 -7
11 -5 10 3 76 -40 76 -50 0 -4 -12 -3 -27 3 -15 5 -37 8 -49 5 -12 -3 -24 -1
-26 5 -2 5 -10 11 -18 13 -8 1 -24 7 -35 13 -23 12 -85 6 -85 -9 0 -5 5 -6 10
-3 6 3 10 -2 10 -12 0 -13 3 -15 8 -5 5 7 16 10 25 6 9 -3 14 -10 11 -15 -3
-5 6 -13 20 -19 14 -5 26 -12 26 -15 0 -2 -12 0 -26 5 -37 14 -51 12 -28 -5
10 -8 14 -15 7 -15 -6 0 -15 5 -19 11 -3 6 -17 9 -30 6 -13 -2 -24 0 -24 5 0
5 -4 7 -9 3 -5 -3 -12 -1 -16 5 -3 6 4 11 17 11 18 1 19 2 5 6 -15 4 -16 7 -5
21 12 15 11 16 -4 4 -9 -8 -21 -11 -26 -9 -4 3 -14 1 -22 -4 -13 -8 -13 -10
-1 -18 7 -5 11 -14 7 -19 -4 -7 -23 -3 -53 14 -58 30 -58 30 -25 29 17 0 26 5
24 13 -2 10 2 10 17 2 16 -8 22 -7 30 9 8 13 20 18 41 17 45 -3 47 11 3 23
-30 9 -39 8 -46 -4 -4 -8 -13 -15 -20 -15 -7 0 -6 4 3 10 13 8 13 10 -2 10 -9
0 -24 3 -34 7 -10 4 -15 2 -11 -4 3 -5 0 -10 -7 -10 -9 0 -12 7 -8 16 9 28 25
42 40 36 10 -4 13 0 9 15 -3 11 -1 18 4 14 5 -3 10 7 10 23 2 23 2 24 6 6 2
-13 12 -23 21 -23z m127 30 c-3 -5 -12 -10 -18 -10 -7 0 -6 4 3 10 19 12 23
12 15 0z m-945 -36 c0 -14 -12 -19 -23 -8 -9 9 4 35 14 28 5 -3 9 -12 9 -20z
m220 -11 c13 -12 12 -13 -8 -10 -12 2 -28 9 -34 15 -7 7 -18 12 -25 12 -7 0
-13 4 -13 9 0 13 60 -7 80 -26z m491 14 c-10 -9 -11 -8 -5 6 3 10 9 15 12 12
3 -3 0 -11 -7 -18z m289 9 c0 -3 -4 -8 -10 -11 -5 -3 -10 -1 -10 4 0 6 5 11
10 11 6 0 10 -2 10 -4z m-306 -22 c5 -14 1 -16 -26 -10 -49 10 -59 26 -16 26
24 0 38 -5 42 -16z m271 -2 c-3 -3 -11 0 -18 7 -9 10 -8 11 6 5 10 -3 15 -9
12 -12z m-817 -24 c7 -7 12 -8 12 -3 0 5 11 -2 25 -15 14 -13 25 -19 25 -13 0
6 -7 13 -15 17 -21 8 -19 25 3 21 9 -2 19 -4 22 -5 3 -1 10 -2 15 0 6 1 5 -4
-2 -11 -6 -6 -9 -18 -6 -25 7 -18 -18 -18 -42 0 -11 8 -26 11 -34 8 -9 -3 -12
-1 -7 6 3 6 1 14 -5 18 -6 3 -15 0 -20 -7 -5 -8 -9 -9 -9 -3 0 24 20 30 38 12z
m482 2 c0 -5 -5 -10 -11 -10 -5 0 -7 5 -4 10 3 6 8 10 11 10 2 0 4 -4 4 -10z
m-646 -16 c3 -8 2 -12 -4 -9 -6 3 -10 10 -10 16 0 14 7 11 14 -7z m613 10 c-3
-3 -12 -4 -19 -1 -8 3 -5 6 6 6 11 1 17 -2 13 -5z m-52 -14 c8 -13 -5 -13 -25
0 -13 8 -13 10 2 10 9 0 20 -4 23 -10z m-270 -10 c18 -8 17 -9 -7 -9 -15 -1
-30 4 -33 9 -7 12 12 12 40 0z m233 -11 c18 -6 29 -15 26 -21 -4 -6 -10 -5
-15 3 -6 10 -9 11 -9 2 0 -8 -13 -13 -30 -13 l-31 0 25 -27 c22 -23 23 -29 11
-36 -9 -4 -25 -5 -38 -1 -19 6 -20 5 -8 -10 12 -14 10 -16 -12 -16 -18 0 -31
-8 -40 -26 l-14 -27 -17 24 -18 24 7 -24 c5 -16 4 -21 -4 -17 -6 4 -24 9 -41
11 -22 2 -30 -1 -30 -11 0 -9 -6 -22 -14 -30 -13 -12 -15 -10 -21 16 -7 32
-25 41 -25 14 0 -13 -3 -14 -14 -5 -10 8 -16 9 -21 2 -4 -7 -11 -7 -19 2 -8 6
-12 15 -10 19 2 3 -4 5 -13 4 -10 -2 -21 2 -25 8 -5 6 -8 2 -8 -11 0 -22 9
-27 38 -24 6 1 12 -2 12 -7 0 -5 -6 -9 -12 -10 -7 0 -26 -3 -43 -5 -16 -2 -33
1 -37 7 -5 8 -8 7 -8 -2 0 -7 7 -15 15 -18 8 -4 13 -10 10 -14 -3 -5 0 -21 6
-37 8 -22 8 -25 -2 -16 -8 8 -18 9 -31 2 -12 -7 -18 -6 -18 1 0 6 -11 8 -25 6
-15 -3 -25 0 -25 7 0 8 -3 7 -9 -2 -5 -8 -11 -9 -15 -3 -4 6 2 15 11 21 17 10
17 10 1 11 -10 0 -18 -3 -19 -7 0 -5 -2 -18 -3 -30 -1 -12 3 -24 11 -27 15 -6
18 -36 4 -36 -5 0 -12 6 -14 13 -4 9 -8 8 -17 -3 -8 -12 -9 -8 -4 15 7 29 7
30 -13 12 -13 -12 -19 -27 -16 -45 3 -25 3 -26 -7 -4 -6 14 -6 31 0 48 6 14 6
23 1 20 -4 -3 -16 -26 -26 -52 -14 -37 -15 -51 -6 -65 15 -26 14 -56 -3 -56
-11 0 -13 5 -5 19 12 21 4 38 -17 38 -10 0 -13 8 -9 28 5 23 4 24 -5 7 -8 -17
-9 -17 -7 -2 1 10 5 17 8 15 11 -5 39 24 33 34 -4 6 0 15 7 20 12 8 11 9 -1 5
-8 -2 -14 -12 -14 -21 1 -9 -5 -16 -13 -16 -8 0 -12 4 -9 9 3 4 -6 13 -19 19
-21 10 -23 9 -18 -5 4 -10 2 -14 -5 -9 -6 3 -14 1 -18 -5 -4 -8 -3 -9 4 -5 14
9 15 -4 2 -24 -7 -11 -10 -11 -10 -2 0 7 -4 11 -9 8 -5 -3 -12 2 -16 12 -6 16
-7 16 -17 -2 -8 -15 -8 -21 0 -24 6 -2 9 -9 7 -15 -2 -7 -6 -24 -9 -39 -4 -16
-11 -28 -17 -28 -6 0 -8 4 -4 9 3 5 1 12 -4 15 -11 7 -31 -16 -36 -43 -2 -11
-8 -29 -14 -38 -8 -14 -10 -10 -6 17 5 32 4 33 -6 13 -7 -13 -16 -23 -21 -23
-15 0 -9 10 32 51 40 40 44 52 42 119 -1 31 0 32 7 10 8 -25 8 -24 19 10 9 30
10 32 11 10 l2 -25 12 23 c7 12 17 19 21 15 5 -4 5 2 2 14 -6 18 -4 22 8 17
11 -4 16 0 16 11 0 9 4 14 8 11 4 -2 8 8 7 22 0 20 5 27 18 25 12 -1 17 4 13
14 -3 8 -1 11 4 8 6 -3 10 -16 10 -28 0 -12 5 -29 11 -37 8 -12 9 -8 5 15 -3
17 -8 40 -12 53 -6 21 -4 22 21 16 15 -4 38 -17 52 -30 14 -13 29 -21 34 -18
5 3 9 -3 9 -13 0 -15 2 -15 10 -3 10 15 -6 44 -20 35 -4 -3 -10 2 -14 10 -3 8
-1 17 4 20 6 4 10 0 10 -7 0 -8 3 -9 8 -3 4 6 17 10 30 9 27 -2 29 12 2 26
-11 6 -20 7 -20 3 0 -4 -9 3 -20 15 -26 28 -34 28 -20 1 7 -11 9 -24 5 -27
-11 -12 -31 25 -30 54 2 25 6 29 36 29 19 1 40 4 46 8 6 4 30 4 53 1 34 -5 41
-3 35 7 -5 8 1 6 13 -4 11 -11 25 -16 31 -13 5 3 16 -1 24 -9 19 -18 41 -20
31 -2 -6 8 -3 8 9 -1 9 -8 21 -11 26 -7 6 3 19 1 30 -5 13 -7 22 -7 26 0 7 11
45 14 45 4 0 -4 -8 -13 -17 -20 -17 -13 -17 -13 0 -14 9 0 17 5 17 10 0 7 8 7
23 -1 21 -12 21 -11 5 8 -25 28 -23 33 17 33 19 0 35 4 35 9 0 10 45 29 71 30
9 1 30 -4 47 -10z m767 -9 c3 -6 -1 -7 -9 -4 -18 7 -21 14 -7 14 6 0 13 -4 16
-10z m-714 -33 c-10 -9 -11 -8 -5 6 3 10 9 15 12 12 3 -3 0 -11 -7 -18z m-715
-14 c-7 -7 -26 7 -26 19 0 6 6 6 15 -2 9 -7 13 -15 11 -17z m48 19 c2 -4 1
-14 -5 -22 -5 -8 -9 -13 -10 -10 0 3 -2 13 -4 23 -3 17 10 24 19 9z m1071 -20
c-3 -3 -11 0 -18 7 -9 10 -8 11 6 5 10 -3 15 -9 12 -12z m-440 -32 c3 -5 1
-10 -4 -10 -6 0 -11 5 -11 10 0 6 2 10 4 10 3 0 8 -4 11 -10z m836 -17 c13
-15 12 -15 -8 -4 -24 12 -29 21 -14 21 5 0 15 -7 22 -17z m-757 -29 c5 -14 4
-15 -9 -4 -17 14 -19 20 -6 20 5 0 12 -7 15 -16z m-184 -4 c0 -5 -2 -10 -4
-10 -3 0 -8 5 -11 10 -3 6 -1 10 4 10 6 0 11 -4 11 -10z m235 0 c3 -5 1 -10
-4 -10 -6 0 -11 5 -11 10 0 6 2 10 4 10 3 0 8 -4 11 -10z m-200 -10 c3 -5 1
-10 -4 -10 -6 0 -11 5 -11 10 0 6 2 10 4 10 3 0 8 -4 11 -10z m-675 -49 c0
-17 -17 -13 -24 5 -10 27 -7 36 9 20 8 -8 15 -19 15 -25z m580 9 c0 -5 -2 -10
-4 -10 -3 0 -8 5 -11 10 -3 6 -1 10 4 10 6 0 11 -4 11 -10z m1226 -12 c36 -31
45 -41 39 -46 -3 -3 -20 8 -38 26 -31 31 -32 45 -1 20z m-1440 -24 c1 -14 -1
-23 -4 -20 -3 3 -11 1 -17 -4 -9 -8 -14 -5 -18 10 -3 11 -1 18 4 14 5 -3 9 2
9 10 0 27 25 18 26 -10z m49 -9 l18 -30 -21 19 c-12 11 -22 26 -22 34 0 17 -1
18 25 -23z m1505 -92 c0 -7 -10 -13 -22 -12 -13 0 -17 3 -10 6 6 2 12 9 12 14
0 6 -4 8 -8 5 -5 -3 -9 1 -9 8 0 11 4 12 19 3 10 -7 18 -17 18 -24z m-1675 7
c3 -5 2 -10 -4 -10 -5 0 -13 5 -16 10 -3 6 -2 10 4 10 5 0 13 -4 16 -10z
m1809 -27 c8 -19 2 -16 -25 13 -23 25 -23 26 -2 13 13 -7 25 -19 27 -26z
m-2028 -51 c-9 -8 -14 0 -21 33 l-6 30 16 -28 c9 -16 14 -31 11 -35z m2069 28
c3 -6 -1 -7 -9 -4 -18 7 -21 14 -7 14 6 0 13 -4 16 -10z m-1965 -16 c0 -8 -4
-12 -10 -9 -5 3 -10 10 -10 16 0 5 5 9 10 9 6 0 10 -7 10 -16z m-130 -26 c0
-18 -2 -20 -9 -8 -6 8 -7 18 -5 22 9 14 14 9 14 -14z m51 -34 c-5 -21 -9 -30
-10 -19 -1 24 10 67 15 62 3 -2 0 -22 -5 -43z m2033 -20 c4 -9 13 -14 21 -10
13 4 13 2 5 -14 -6 -11 -13 -20 -16 -20 -3 0 -2 5 1 10 3 6 1 11 -4 11 -6 1
-15 2 -21 3 -5 0 -10 4 -10 9 0 4 0 12 0 17 0 16 17 12 24 -6z m98 -28 c9 -18
8 -19 -3 -6 -8 8 -21 20 -29 27 -13 11 -13 12 3 7 10 -4 22 -16 29 -28z m-144
-121 c-3 -3 -9 2 -12 12 -6 14 -5 15 5 6 7 -7 10 -15 7 -18z m207 -24 c3 -5 2
-12 -3 -15 -5 -3 -9 1 -9 9 0 17 3 19 12 6z m-778 -33 c-3 -7 -5 -2 -5 12 0
14 2 19 5 13 2 -7 2 -19 0 -25z m820 -15 c-8 -7 -37 9 -31 19 3 5 12 4 20 -3
8 -6 13 -14 11 -16z m66 -67 c29 -38 32 -46 17 -46 -5 0 -10 7 -10 16 0 8 -4
13 -8 10 -5 -3 -16 8 -26 25 -24 40 -7 37 27 -5z m-2053 -54 c0 -4 -9 -15 -19
-24 -13 -11 -22 -13 -30 -5 -7 7 -5 14 7 23 19 15 42 18 42 6z m1985 -32 c10
-11 16 -20 13 -20 -3 0 -13 9 -23 20 -10 11 -16 20 -13 20 3 0 13 -9 23 -20z
m129 4 c5 -14 4 -15 -9 -4 -17 14 -19 20 -6 20 5 0 12 -7 15 -16z m-2104 -84
c4 0 6 -8 3 -19 -6 -23 16 -39 28 -20 5 8 9 10 9 6 0 -5 7 -1 16 8 10 10 14
24 10 39 -5 20 -2 24 19 24 14 0 28 -4 31 -9 3 -5 14 -9 25 -9 23 0 24 -13 3
-34 -14 -15 -14 -17 2 -23 9 -3 26 -1 37 6 16 10 24 10 43 0 13 -7 24 -16 24
-21 0 -4 5 -8 10 -8 6 0 10 9 10 19 0 23 22 40 28 23 2 -7 8 -12 14 -12 12 0
38 -26 38 -38 0 -5 -16 -22 -35 -37 -27 -22 -32 -31 -25 -46 6 -10 10 -26 10
-36 -1 -13 -9 -8 -31 20 -17 20 -39 37 -50 37 -10 0 -17 6 -15 13 1 6 1 9 -1
5 -13 -24 -63 17 -63 50 0 15 -5 22 -12 19 -7 -2 -22 3 -32 12 -18 15 -19 15
-13 -1 4 -13 2 -15 -10 -11 -10 4 -14 2 -9 -5 3 -6 2 -13 -4 -17 -5 -3 -10 -2
-10 3 0 6 -8 8 -18 5 -20 -5 -65 30 -54 42 4 5 1 5 -7 0 -8 -4 -17 -2 -22 6
-16 25 -10 47 14 51 16 2 23 -3 25 -19 2 -13 7 -23 12 -23z m-200 -55 c18 -48
1 -40 -20 9 -11 26 -20 51 -20 54 0 11 29 -35 40 -63z m2170 -29 c-11 -11 -42
13 -37 28 3 6 0 20 -5 31 -5 11 4 4 21 -15 18 -21 26 -39 21 -44z m-1390 53
c0 6 7 11 16 11 8 0 12 -4 9 -10 -3 -5 -1 -10 6 -10 7 0 29 -19 51 -42 34 -37
38 -39 38 -18 0 20 3 22 33 15 17 -4 40 -7 49 -7 9 0 24 -11 34 -26 25 -38 41
-48 76 -46 20 1 28 -2 25 -10 -5 -14 47 -49 74 -51 11 -1 15 4 11 18 -3 10 1
23 9 28 18 12 132 0 141 -15 4 -6 8 -7 8 -3 0 4 6 3 13 -2 55 -45 67 -59 71
-83 4 -25 1 -28 -22 -29 -15 -1 -31 -1 -35 0 -13 2 -52 9 -54 10 -2 1 -5 0 -7
-1 -3 -2 -16 8 -30 21 -31 29 -116 33 -116 5 0 -41 -84 -39 -135 3 -19 17 -31
21 -33 13 -3 -9 -7 -9 -13 1 -7 11 -9 11 -9 -1 0 -11 -11 -17 -34 -18 -26 -2
-43 5 -69 28 -19 16 -43 31 -53 33 -37 8 -55 20 -70 49 -9 16 -18 27 -22 24
-10 -11 -28 46 -24 76 2 15 11 28 18 28 8 0 14 5 14 11 0 8 5 8 15 -1 10 -9
15 -9 15 -1z m1713 -22 c3 -8 -1 -14 -9 -14 -8 0 -14 6 -14 14 0 7 4 13 9 13
5 0 11 -6 14 -13z m-363 -51 c0 -28 -13 -11 -16 21 -2 21 -1 24 6 13 5 -8 10
-24 10 -34z m125 12 c5 -4 0 -6 -12 -6 -13 1 -19 7 -16 15 3 8 8 10 12 6 3 -4
10 -11 16 -15z m73 -14 c-4 -3 -12 5 -18 18 -12 22 -12 22 6 6 10 -10 15 -20
12 -24z m-1693 16 c-3 -5 1 -10 9 -10 11 0 15 -8 12 -27 -5 -41 -16 -63 -32
-63 -8 0 -18 8 -21 18 -4 9 -10 20 -15 23 -16 10 13 69 34 69 10 0 16 -4 13
-10z m-637 -25 c-3 -3 -9 2 -12 12 -6 14 -5 15 5 6 7 -7 10 -15 7 -18z m2552
0 c14 -19 14 -19 -2 -6 -13 9 -18 10 -18 2 0 -7 -4 -9 -10 -6 -5 3 -10 11 -10
16 0 6 5 7 10 4 6 -3 10 -1 10 6 0 7 1 10 3 8 1 -2 9 -13 17 -24z m-348 -5 c8
-8 23 -28 33 -45 11 -16 25 -34 32 -38 7 -4 13 -14 13 -22 0 -8 8 -19 18 -24
16 -10 16 -10 -2 -11 -18 0 -18 -2 4 -25 13 -14 20 -25 17 -25 -4 0 2 -9 13
-20 11 -11 20 -25 20 -31 0 -20 -24 -3 -43 32 -11 19 -23 36 -27 39 -4 3 -6
13 -4 23 1 10 -4 21 -12 24 -8 3 -12 9 -9 13 3 4 -2 13 -10 20 -8 7 -15 19
-15 26 0 8 -10 14 -22 14 -15 0 -19 3 -11 8 9 6 7 12 -7 25 -11 9 -24 17 -30
17 -5 0 -11 4 -14 8 -9 15 40 7 56 -8z m-2131 -115 c23 -44 35 -73 26 -65 -16
16 -77 120 -91 155 -16 44 23 -11 65 -90z m460 82 c-10 -9 -11 -8 -5 6 3 10 9
15 12 12 3 -3 0 -11 -7 -18z m1633 -3 c3 -8 2 -12 -4 -9 -6 3 -10 10 -10 16 0
14 7 11 14 -7z m343 -13 c0 -11 -5 -18 -9 -15 -4 3 -5 11 -1 19 7 21 12 19 10
-4z m53 -14 c11 -5 9 -6 -4 -4 -11 1 -21 9 -23 17 -3 10 -2 11 4 4 4 -6 15
-14 23 -17z m-1990 -3 c0 -8 -4 -12 -10 -9 -5 3 -10 10 -10 16 0 5 5 9 10 9 6
0 10 -7 10 -16z m1621 -11 c13 -16 12 -17 -3 -4 -10 7 -18 15 -18 17 0 8 8 3
21 -13z m290 -25 l22 -43 -27 28 c-14 15 -26 35 -26 43 0 24 9 16 31 -28z
m-103 -9 c-3 -8 -7 -3 -11 10 -4 17 -3 21 5 13 5 -5 8 -16 6 -23z m-866 -17
c8 -8 4 -13 -16 -18 -31 -7 -41 -1 -33 20 6 16 31 16 49 -2z m1078 -12 c12
-16 19 -30 16 -30 -8 0 -46 43 -46 52 0 15 8 8 30 -22z m-144 -12 l29 -33 -32
29 c-18 17 -33 31 -33 33 0 8 8 1 36 -29z m-451 2 c3 -5 1 -10 -4 -10 -6 0
-11 5 -11 10 0 6 2 10 4 10 3 0 8 -4 11 -10z m32 -12 c-3 -8 -6 -5 -6 6 -1 11
2 17 5 13 3 -3 4 -12 1 -19z m698 -38 c4 -8 -8 -2 -24 14 -17 17 -31 31 -31
33 0 9 50 -34 55 -47z m-294 23 c13 -16 12 -17 -3 -4 -10 7 -18 15 -18 17 0 8
8 3 21 -13z m-486 -13 c15 0 28 -27 19 -41 -3 -5 0 -9 7 -9 7 0 10 -3 6 -6 -3
-4 1 -13 9 -21 17 -18 13 -26 -8 -18 -22 9 -39 50 -26 63 7 7 4 14 -11 21 -12
7 -21 17 -20 24 0 9 2 9 6 0 2 -7 11 -13 18 -13z m445 -15 c11 -13 10 -14 -4
-9 -9 3 -16 10 -16 15 0 13 6 11 20 -6z m130 -20 c13 -14 21 -25 18 -25 -2 0
-15 11 -28 25 -13 14 -21 25 -18 25 2 0 15 -11 28 -25z m-485 -15 c3 5 3 16
-1 23 -4 6 2 4 14 -6 12 -11 26 -16 33 -11 7 4 10 3 6 -3 -6 -9 18 -27 26 -20
1 1 16 -7 32 -19 34 -23 75 -40 123 -49 18 -4 30 -11 26 -16 -3 -5 1 -9 9 -9
9 0 33 -15 55 -32 22 -18 52 -42 68 -53 44 -31 162 -152 237 -243 76 -92 103
-100 72 -19 -14 34 5 16 20 -20 14 -33 14 -38 -1 -61 -25 -38 -71 -25 -155 45
-84 69 -257 195 -333 242 -31 18 -60 39 -66 46 -6 7 -19 11 -29 8 -10 -3 -22
0 -25 6 -10 16 -39 14 -33 -3 7 -17 -19 -56 -37 -56 -8 0 -19 6 -25 13 -8 11
-5 19 14 37 24 22 26 54 6 70 -15 12 -35 43 -23 36 15 -9 15 -1 1 25 -5 11
-14 17 -19 14 -9 -5 -26 33 -22 49 2 4 -1 13 -5 20 -4 7 0 4 9 -6 10 -11 19
-14 23 -8z m611 6 c17 -17 19 -39 2 -34 -11 4 -32 48 -22 48 3 0 12 -6 20 -14z
m-215 -13 c13 -16 12 -17 -3 -4 -10 7 -18 15 -18 17 0 8 8 3 21 -13z m-1847
-70 c3 -7 0 -13 -6 -13 -7 0 -3 -7 8 -15 10 -8 14 -15 7 -15 -14 0 -103 61
-103 71 0 12 89 -14 94 -28z m2106 17 c6 -11 7 -20 2 -20 -6 0 -12 9 -15 20
-3 11 -3 20 -1 20 2 0 8 -9 14 -20z m-2047 -5 c13 -8 33 -16 45 -18 12 -2 30
-14 39 -28 10 -13 24 -29 33 -36 13 -10 12 -12 -8 -8 -31 6 -81 37 -116 74
-32 33 -29 40 7 16z m1947 -46 c15 -28 5 -23 -15 7 -9 15 -12 23 -6 20 6 -4
16 -16 21 -27z m-1722 -39 c4 0 19 -14 31 -31 31 -42 8 -36 -64 16 -65 47 -71
61 -15 34 21 -10 43 -19 48 -19z m537 -27 c6 3 20 -4 30 -15 13 -15 19 -18 25
-8 5 9 12 6 24 -11 9 -13 16 -19 16 -14 0 4 11 -2 25 -15 14 -13 25 -18 25
-12 0 7 -18 30 -40 51 -33 32 -38 40 -23 43 34 7 164 -31 199 -57 20 -15 38
-25 40 -22 3 3 -11 15 -30 27 -20 12 -45 34 -56 50 l-20 28 52 -25 c28 -13 81
-31 117 -40 74 -17 154 -48 190 -75 31 -23 40 -23 34 2 -6 24 14 27 43 6 19
-14 18 -15 -5 -35 -48 -42 -125 -51 -181 -21 -39 21 -89 30 -84 15 8 -20 -45
-33 -86 -22 -19 5 -59 27 -88 49 -37 28 -50 34 -43 20 20 -37 -7 -62 -54 -52
-5 1 -23 4 -39 6 -52 6 -91 56 -99 129 -6 43 -5 46 4 22 6 -16 17 -26 24 -24z
m1523 -31 c31 -42 69 -105 85 -139 30 -66 49 -150 37 -158 -11 -7 -41 5 -62
23 -10 8 -18 11 -18 7 0 -11 92 -145 140 -205 48 -60 93 -131 87 -137 -3 -3
-13 7 -22 21 -9 13 -23 22 -30 20 -8 -3 -27 13 -47 40 -18 25 -39 45 -46 46
-7 0 -10 -4 -7 -10 3 -5 2 -10 -4 -10 -20 0 -21 19 0 25 20 7 20 8 -10 37 -17
16 -43 53 -59 81 -16 29 -38 69 -50 90 -12 20 -18 37 -13 37 6 0 13 -10 16
-21 6 -16 9 -18 15 -8 5 8 1 24 -12 43 l-22 31 25 -22 c14 -13 28 -23 32 -23
3 0 18 -11 33 -25 15 -14 29 -23 32 -20 8 8 -100 242 -150 323 -36 58 -9 34
50 -46z m-1904 -7 c28 -58 16 -61 -40 -10 -22 19 -45 39 -51 45 -26 22 -12 28
31 14 33 -12 48 -24 60 -49z m294 40 c17 -1 32 -16 53 -54 17 -29 28 -55 26
-57 -5 -5 -147 114 -147 123 0 2 10 1 23 -3 12 -4 32 -8 45 -9z m-156 -65 c17
-8 24 -18 21 -28 -5 -11 -3 -13 7 -7 8 5 11 4 7 -2 -4 -6 4 -22 18 -34 22 -22
34 -59 19 -59 -4 0 -13 8 -21 18 -8 9 -12 11 -8 5 3 -7 3 -13 -1 -13 -11 0
-33 34 -34 53 0 9 -5 17 -11 17 -6 0 -8 -9 -4 -22 5 -18 4 -20 -4 -8 -6 8 -14
15 -18 15 -22 1 -55 30 -78 69 -14 23 -25 46 -25 49 0 6 44 -12 132 -53z
m1054 8 c28 -30 18 -30 -18 1 -16 13 -24 31 -15 31 2 0 16 -14 33 -32z m647
-85 c32 -50 34 -60 7 -33 -11 11 -20 23 -20 26 0 3 -12 21 -26 40 -27 35 -51
46 -40 19 8 -21 2 -19 -20 7 -18 20 -18 21 -1 15 13 -5 18 -2 16 11 -4 43 9
30 84 -85z m-162 -10 c13 -16 12 -17 -3 -4 -10 7 -18 15 -18 17 0 8 8 3 21
-13z m78 -25 c10 -30 9 -31 -4 -14 -8 11 -15 26 -15 33 0 22 8 14 19 -19z
m-1508 -1 c-13 -13 -26 -3 -16 12 3 6 11 8 17 5 6 -4 6 -10 -1 -17z m1454 -28
c9 -17 15 -33 13 -35 -3 -2 -12 12 -21 31 -21 43 -13 47 8 4z m43 -12 c8 -9 8
-17 0 -27 -8 -12 -9 -12 -4 2 3 10 -2 22 -12 27 -9 6 -12 11 -6 11 6 0 16 -6
22 -13z m62 -66 c-1 -13 -29 45 -29 59 0 8 6 0 14 -19 8 -18 15 -36 15 -40z
m-2394 21 c-9 -8 -26 10 -26 26 1 15 2 15 15 -2 8 -11 13 -21 11 -24z m64 7
c18 -33 6 -42 -13 -9 -10 16 -14 30 -8 30 6 0 15 -9 21 -21z m68 -6 c41 -27
91 -74 123 -117 16 -21 29 -36 29 -31 0 4 8 -3 19 -16 16 -19 16 -25 5 -37
-16 -15 -18 -34 -5 -47 5 -6 12 -21 16 -35 3 -14 3 -20 -2 -14 -4 7 -17 13
-27 15 -11 2 -22 11 -24 19 -5 13 -3 13 13 0 17 -14 18 -13 11 10 -4 14 -8 33
-9 42 -1 9 -5 14 -9 12 -4 -3 -8 -1 -8 5 0 6 -24 36 -54 67 -37 39 -59 55 -70
51 -11 -5 -16 -1 -16 14 0 11 -7 22 -16 26 -13 5 -13 7 -2 15 10 7 9 11 -6 23
-27 21 -1 19 32 -2z m1038 -54 c11 -18 -26 5 -66 41 l-35 31 47 -30 c26 -17
50 -36 54 -42z m24 51 c0 -5 -2 -10 -4 -10 -3 0 -8 5 -11 10 -3 6 -1 10 4 10
6 0 11 -4 11 -10z m1147 -15 c0 -8 -4 -12 -9 -9 -5 3 -6 10 -3 15 9 13 12 11
12 -6z m27 -11 c3 -8 2 -12 -4 -9 -6 3 -10 10 -10 16 0 14 7 11 14 -7z m-973
-124 c129 -101 426 -349 449 -376 30 -35 19 -27 -115 87 -55 47 -176 146 -270
221 -93 74 -179 146 -190 159 -13 15 -4 11 24 -11 24 -19 70 -55 102 -80z
m224 -79 c55 -46 138 -118 184 -160 46 -42 93 -84 105 -94 65 -55 226 -223
226 -234 0 -8 39 -55 87 -106 l87 -92 -87 85 c-48 47 -90 92 -93 102 -7 23
-309 302 -609 563 -49 43 -94 85 -99 94 -5 9 15 -4 45 -30 30 -25 99 -83 154
-128z m-250 149 c3 -5 1 -10 -4 -10 -6 0 -11 5 -11 10 0 6 2 10 4 10 3 0 8 -4
11 -10z m-134 -17 c13 -15 12 -15 -8 -4 -24 12 -29 21 -14 21 5 0 15 -7 22
-17z m156 1 c-4 -4 7 -14 23 -23 16 -9 147 -117 290 -241 144 -124 270 -232
281 -242 10 -9 19 -19 19 -23 0 -4 -30 19 -67 52 -38 32 -94 81 -127 108 -32
28 -72 62 -90 77 -17 16 -34 28 -38 28 -4 0 -29 19 -56 43 -27 23 -69 58 -93
77 -24 19 -63 54 -87 77 -24 23 -51 44 -59 47 -13 5 -10 26 4 26 4 0 3 -3 0
-6z m1099 -21 c1 -10 5 -27 9 -37 6 -14 5 -17 -3 -12 -16 10 -15 -5 3 -41 8
-16 17 -45 21 -64 l5 -34 -17 34 c-10 19 -28 44 -41 57 -13 13 -23 29 -23 36
0 9 3 9 11 -2 9 -12 10 -11 6 5 -3 11 -8 29 -12 40 l-8 20 17 -20 c13 -15 16
-16 13 -4 -3 9 0 22 6 28 14 14 13 14 13 -6z m-1182 -28 c11 -8 17 -17 14 -21
-3 -3 -21 9 -40 26 -32 30 -14 27 26 -5z m1123 29 c-3 -3 -12 -4 -19 -1 -8 3
-5 6 6 6 11 1 17 -2 13 -5z m-2230 -31 c7 -9 13 -24 13 -32 0 -9 6 -28 14 -42
18 -34 31 -90 16 -69 -27 38 -51 93 -46 106 3 8 2 13 -2 11 -4 -2 -20 10 -37
25 l-30 29 30 -5 c16 -3 36 -13 42 -23z m-203 1 c3 -8 2 -12 -4 -9 -6 3 -10
10 -10 16 0 14 7 11 14 -7z m87 -1 c13 -16 12 -17 -3 -4 -17 13 -22 21 -14 21
2 0 10 -8 17 -17z m1160 -40 c7 -8 -8 -1 -34 17 -26 17 -47 33 -47 35 0 8 68
-36 81 -52z m663 -8 c2 -8 14 -19 26 -25 20 -11 21 -10 11 9 -19 35 -12 36 14
1 14 -19 25 -30 25 -24 0 5 5 2 11 -6 8 -11 9 -6 5 20 -6 32 -5 33 7 15 8 -11
17 -29 21 -41 3 -11 30 -37 59 -57 28 -20 77 -59 107 -87 30 -27 63 -52 73
-56 9 -3 17 -9 17 -14 0 -20 165 -168 182 -162 4 1 8 -2 8 -7 0 -5 9 -13 20
-16 11 -4 18 -10 16 -14 -3 -4 8 -15 24 -24 16 -10 32 -26 35 -37 9 -28 21
-25 35 10 17 40 25 44 26 12 1 -15 4 -38 8 -52 5 -19 4 -20 -2 -6 -6 14 -11
16 -16 8 -9 -15 -73 -15 -117 -1 -21 7 -85 61 -170 143 -157 152 -346 319
-440 391 -89 67 -108 95 -40 60 27 -15 52 -32 55 -40z m490 26 c-6 -6 -24 19
-24 34 1 6 7 1 15 -9 8 -11 12 -22 9 -25z m36 -8 c0 -13 12 -40 26 -59 15 -19
25 -37 22 -39 -8 -9 -58 73 -58 94 0 11 -4 23 -10 26 -5 3 -10 11 -10 17 0 7
6 6 15 -2 8 -7 15 -23 15 -37z m-785 -21 c-3 -7 -1 -10 5 -7 13 8 137 -82 295
-215 48 -41 138 -123 158 -145 10 -11 53 -56 96 -100 42 -44 102 -111 133
-150 91 -114 121 -142 163 -154 22 -6 46 -11 53 -11 7 0 24 -11 37 -25 14 -13
25 -19 25 -14 0 6 8 21 18 34 l19 24 1 -34 c1 -18 -5 -39 -13 -45 -8 -7 -15
-9 -15 -4 0 4 -6 -1 -14 -11 -18 -25 -86 -27 -113 -4 -10 9 -23 15 -28 13 -10
-4 -269 261 -309 315 -10 14 54 -48 143 -139 l162 -165 -99 120 c-55 66 -167
186 -248 266 -193 189 -233 226 -447 405 -64 54 -85 91 -41 70 13 -6 22 -17
19 -24z m-1531 -1 c-2 -3 -12 3 -22 13 -16 17 -16 18 5 5 12 -7 20 -15 17 -18z
m265 -1 c7 0 10 -4 7 -9 -3 -5 0 -11 8 -14 7 -3 16 -14 18 -25 5 -18 3 -19
-16 -12 -11 5 -30 11 -41 15 -14 4 -16 8 -7 14 10 6 10 11 -3 21 -8 7 -15 19
-15 28 0 13 2 13 18 -1 10 -10 24 -17 31 -17z m971 15 c11 -13 10 -14 -4 -9
-9 3 -16 10 -16 15 0 13 6 11 20 -6z m1204 -26 c-3 -5 -2 -14 2 -20 5 -8 9 -8
14 1 4 6 7 -2 6 -19 -1 -28 -2 -29 -13 -14 -10 13 -13 14 -14 2 0 -10 -2 -10
-6 -1 -2 6 -8 10 -13 7 -4 -3 -10 5 -13 16 -4 15 -2 19 9 15 19 -7 18 4 -3 20
-16 12 -16 15 -3 24 11 7 18 5 27 -7 7 -9 10 -20 7 -24z m-124 -36 c-1 -11
-40 37 -40 49 0 6 9 -1 20 -15 11 -14 20 -29 20 -34z m-1948 -5 c10 -10 27
-18 38 -18 10 0 24 -9 30 -20 6 -11 15 -18 19 -16 8 5 111 -40 111 -49 0 -2
-16 3 -35 11 -19 7 -45 14 -57 14 -13 0 -32 7 -42 15 -32 24 -37 17 -15 -20
13 -21 33 -38 52 -44 72 -22 141 -50 127 -50 -8 -1 -37 6 -64 14 -57 17 -69
19 -62 6 3 -5 27 -14 53 -21 27 -7 44 -14 38 -16 -20 -7 -110 22 -110 36 0 9
-27 23 -70 37 l-70 22 54 -6 c59 -6 58 -8 19 50 -11 15 -28 27 -37 27 -23 0
-37 17 -47 54 l-7 28 29 -18 c16 -11 37 -27 46 -36z m-152 26 c0 -2 -7 -4 -15
-4 -8 0 -15 4 -15 10 0 5 7 7 15 4 8 -4 15 -8 15 -10z m986 -15 c3 -6 -5 -3
-20 6 -14 10 -26 19 -26 22 0 7 39 -17 46 -28z m-1205 -44 c35 -39 38 -46 17
-32 -34 21 -34 18 -7 -27 12 -20 19 -36 16 -36 -8 0 -60 84 -61 99 -1 9 -7 27
-15 41 -15 28 -12 25 50 -45z m1329 34 c3 -3 16 -13 30 -22 13 -9 19 -17 12
-17 -7 0 -29 16 -50 36 -20 20 -28 30 -17 23 11 -8 22 -17 25 -20z m-1391 -29
c17 -28 31 -53 31 -57 0 -10 -56 69 -63 90 -11 30 0 19 32 -33z m145 -39 c26
-23 45 -41 41 -41 -8 0 -52 33 -98 73 -48 42 1 14 57 -32z m2261 39 c10 -11
16 -20 13 -20 -3 0 -13 9 -23 20 -10 11 -16 20 -13 20 3 0 13 -9 23 -20z
m-2072 -10 c3 -11 1 -18 -4 -14 -5 3 -9 12 -9 20 0 20 7 17 13 -6z m-73 -41
c0 -5 -4 -9 -10 -9 -5 0 -10 7 -10 16 0 8 5 12 10 9 6 -3 10 -10 10 -16z m-40
-4 c11 -13 10 -14 -4 -9 -9 3 -16 10 -16 15 0 13 6 11 20 -6z m1281 -2 c13
-16 12 -17 -3 -4 -10 7 -18 15 -18 17 0 8 8 3 21 -13z m-1441 -57 c0 -5 -7 -1
-15 10 -8 10 -14 24 -14 29 0 6 6 1 14 -9 8 -11 15 -24 15 -30z m55 34 c3 -6
-1 -7 -9 -4 -18 7 -21 14 -7 14 6 0 13 -4 16 -10z m179 4 c9 -3 16 -14 16 -23
0 -11 3 -12 8 -4 6 10 15 9 37 -3 17 -8 35 -20 40 -26 6 -7 -2 -4 -16 4 -14 9
-35 15 -45 14 -10 -2 -26 2 -34 10 -15 12 -19 14 -40 14 -5 0 -10 5 -10 10 0
11 20 13 44 4z m1247 -11 c13 -16 12 -17 -3 -4 -10 7 -18 15 -18 17 0 8 8 3
21 -13z m-70 -20 c13 -16 12 -17 -3 -4 -10 7 -18 15 -18 17 0 8 8 3 21 -13z
m-1326 -23 c10 -11 16 -20 13 -20 -3 0 -13 9 -23 20 -10 11 -16 20 -13 20 3 0
13 -9 23 -20z m160 -2 c4 -4 13 -4 20 -1 12 4 108 -40 125 -57 5 -5 56 -31 75
-38 6 -2 -3 8 -20 22 -25 22 -26 24 -8 20 26 -7 38 -20 48 -52 l7 -24 -28 19
c-16 10 -25 12 -21 6 11 -17 2 -16 -39 3 -19 9 -32 20 -29 24 3 5 0 12 -6 16
-8 4 -9 3 -5 -4 4 -7 2 -12 -3 -12 -6 0 -11 6 -11 14 0 7 -12 22 -27 31 l-28
18 21 -24 c85 -99 104 -123 104 -130 0 -13 -72 60 -94 94 -9 16 -20 26 -23 23
-3 -3 0 -13 7 -21 9 -11 10 -19 2 -27 -11 -11 -32 -3 -32 14 0 6 6 5 16 -3 11
-9 9 -2 -5 23 -23 38 -81 74 -81 50 0 -5 16 -16 35 -25 19 -9 35 -21 35 -27 0
-16 -20 -12 -26 5 -4 8 -11 15 -18 15 -6 0 -26 13 -44 28 l-33 27 40 0 c22 0
43 -3 46 -7z m-187 -23 c-3 -3 -9 2 -12 12 -6 14 -5 15 5 6 7 -7 10 -15 7 -18z
m316 -1 c5 -14 4 -15 -9 -4 -17 14 -19 20 -6 20 5 0 12 -7 15 -16z m139 -16
c12 -7 45 -27 73 -45 28 -17 63 -35 77 -38 15 -4 27 -10 27 -15 0 -4 18 -15
40 -25 49 -22 46 -30 -7 -16 l-38 10 25 -19 c13 -10 28 -16 32 -14 4 3 8 1 8
-4 0 -5 23 -19 51 -32 28 -14 46 -26 41 -28 -6 -2 -26 4 -44 13 l-33 17 30
-25 c16 -14 35 -22 43 -20 7 3 12 1 10 -5 -2 -5 15 -26 37 -47 34 -30 35 -33
10 -18 -16 9 -48 32 -69 50 -45 38 -82 47 -51 13 10 -11 14 -20 9 -20 -5 0 3
-8 16 -17 14 -10 28 -17 31 -16 3 1 6 -5 6 -13 0 -17 -9 -18 -26 -1 -11 10
-12 9 -6 -1 4 -7 17 -17 29 -22 20 -8 20 -9 1 -9 -12 -1 -29 13 -43 35 -24 37
-42 41 -22 5 6 -12 8 -21 6 -21 -7 0 -37 58 -34 63 2 2 -10 19 -27 38 -16 19
-39 51 -49 71 -11 20 -29 39 -40 42 -18 5 -19 8 -6 16 13 9 7 14 -12 11 -5 0
-8 3 -8 8 0 5 -15 17 -32 25 -30 15 -28 12 17 -32 63 -62 80 -82 67 -82 -12 0
-134 122 -157 156 -18 27 -14 29 18 12z m-423 -30 c15 -21 17 -28 6 -19 -16
13 -41 51 -33 51 2 0 14 -15 27 -32z m2735 -31 c13 -31 22 -57 19 -57 -5 0
-54 105 -54 117 0 13 10 -4 35 -60z m-2700 35 c-3 -3 -11 0 -18 7 -9 10 -8 11
6 5 10 -3 15 -9 12 -12z m385 -35 c0 -4 4 -5 10 -2 5 3 44 -63 85 -148 77
-157 106 -196 220 -296 29 -26 45 -46 37 -49 -17 -5 -15 -22 3 -22 8 0 15 5
15 12 0 9 3 9 12 0 18 -18 23 -15 25 14 1 25 -12 47 -50 84 -14 13 -14 17 -3
17 9 0 18 -7 21 -16 5 -13 8 -13 15 -2 6 11 11 5 18 -20 6 -19 17 -55 26 -80
14 -45 14 -46 -5 -42 -10 3 -16 10 -12 17 3 6 3 8 -2 4 -4 -4 -17 -2 -28 4
-17 9 -19 8 -14 -7 6 -14 2 -14 -26 4 -19 11 -36 18 -40 15 -7 -7 -143 158
-139 170 3 10 -17 26 -33 26 -5 0 -4 -4 4 -9 14 -9 25 -41 14 -41 -2 0 -30 28
-61 62 -118 127 -162 171 -162 161 0 -6 25 -38 55 -72 30 -34 55 -64 55 -67 0
-9 -110 108 -128 136 -9 14 -36 48 -59 76 -58 70 -54 80 6 16 45 -47 82 -70
65 -39 -4 6 9 -6 29 -28 20 -22 34 -46 32 -52 -2 -7 8 -19 24 -27 15 -8 34
-22 41 -31 7 -9 22 -21 33 -27 19 -10 19 -10 1 15 -11 14 -30 33 -45 42 -26
18 -61 69 -64 95 -1 8 -6 24 -10 35 -4 11 16 -13 44 -54 29 -41 61 -84 71 -95
10 -12 30 -34 44 -51 l26 -30 -21 50 c-38 94 -93 197 -106 202 -7 3 -21 22
-30 42 -25 55 -26 57 -9 37 9 -11 16 -24 16 -29z m155 13 c39 -16 63 -30 55
-30 -14 0 -141 58 -130 59 3 1 37 -12 75 -29z m-495 -22 c0 -6 -6 -5 -15 2 -8
7 -15 14 -15 16 0 2 7 1 15 -2 8 -4 15 -11 15 -16z m271 -41 c12 -22 12 -22
-10 -3 -11 11 -21 23 -21 28 0 14 19 -1 31 -25z m29 18 c11 -13 10 -14 -4 -9
-9 3 -16 10 -16 15 0 13 6 11 20 -6z m38 -30 c-3 -3 -9 2 -12 12 -6 14 -5 15
5 6 7 -7 10 -15 7 -18z m1327 -39 c6 -4 1 -4 -10 2 -11 6 -29 21 -40 34 -19
22 -19 22 10 -2 17 -14 35 -29 40 -34z m-1475 -49 c0 -7 -6 -3 -12 8 -6 11
-16 27 -22 35 -6 9 -1 5 12 -8 12 -13 22 -28 22 -35z m10 33 c6 -11 8 -20 6
-20 -3 0 -10 9 -16 20 -6 11 -8 20 -6 20 3 0 10 -9 16 -20z m304 -5 c3 -8 1
-15 -4 -15 -6 0 -10 7 -10 15 0 8 2 15 4 15 2 0 6 -7 10 -15z m1247 -52 c8 -9
-5 -2 -28 17 -24 18 -43 35 -43 37 0 7 56 -35 71 -54z m1025 -8 c5 -11 7 -25
6 -31 -1 -6 9 -16 24 -22 14 -7 22 -17 19 -22 -3 -5 5 -15 19 -21 14 -7 37
-29 52 -50 15 -22 31 -39 37 -39 5 0 4 7 -3 15 -20 24 -5 18 16 -7 10 -12 13
-18 5 -13 -9 5 -12 3 -9 -6 3 -8 12 -14 20 -14 8 0 38 -28 67 -61 28 -34 72
-84 97 -110 25 -27 50 -58 56 -69 10 -20 -77 67 -177 176 -27 30 -64 65 -82
79 -18 14 -32 30 -33 37 0 7 -6 10 -13 7 -7 -2 -22 5 -33 17 l-19 22 25 -13
c23 -12 24 -12 11 3 -7 10 -22 17 -32 17 -11 0 -19 4 -19 8 0 9 -20 37 -70 96
l-34 41 32 -29 c42 -39 41 -22 0 23 l-33 35 32 -25 c18 -13 35 -33 39 -44z
m-2536 -5 c6 -11 8 -20 6 -20 -3 0 -10 9 -16 20 -6 11 -8 20 -6 20 3 0 10 -9
16 -20z m494 -15 c20 -8 36 -17 36 -20 0 -6 -63 16 -74 26 -14 13 -3 11 38 -6z
m1144 -80 c21 -18 48 -55 40 -55 -2 0 -30 28 -63 62 -54 56 -48 54 23 -7z
m542 24 c6 -10 7 -19 2 -19 -5 0 -14 12 -20 26 -14 29 2 24 18 -7z m-1875 -24
c19 -15 19 -16 -5 -4 -26 12 -40 27 -40 43 0 6 6 2 13 -7 6 -9 21 -24 32 -32z
m235 -52 c0 -6 -65 42 -87 63 -7 7 -13 16 -13 19 0 4 23 -12 50 -35 28 -23 50
-44 50 -47z m1810 5 c0 -9 4 -19 9 -22 12 -8 21 -45 11 -51 -4 -3 -15 19 -24
48 -10 28 -26 66 -37 82 -18 26 -17 26 10 -5 17 -19 31 -42 31 -52z m-1886 24
c3 7 4 4 1 -8 -3 -12 1 -27 10 -34 8 -7 15 -20 15 -28 0 -18 -5 -11 -46 53
-15 24 -15 27 -2 17 13 -10 17 -10 22 0z m-24 -37 c14 -19 14 -19 -2 -6 -10 7
-18 18 -18 24 0 6 1 8 3 6 1 -2 9 -13 17 -24z m1978 -20 c-3 -3 -9 2 -12 12
-6 14 -5 15 5 6 7 -7 10 -15 7 -18z m-1828 -20 c19 -19 32 -35 29 -35 -3 0
-20 16 -39 35 -19 19 -32 35 -29 35 3 0 20 -16 39 -35z m-65 -15 c10 -11 16
-20 13 -20 -3 0 -13 9 -23 20 -10 11 -16 20 -13 20 3 0 13 -9 23 -20z m2040
-30 l20 -25 -22 19 c-13 11 -23 24 -23 29 0 6 1 8 3 6 1 -2 11 -15 22 -29z
m-188 -12 c-3 -8 -6 -5 -6 6 -1 11 2 17 5 13 3 -3 4 -12 1 -19z m-1907 -26 c0
-15 -2 -15 -10 -2 -13 20 -13 33 0 25 6 -3 10 -14 10 -23z m2135 -19 l18 -28
-21 19 c-12 11 -22 23 -22 28 0 14 7 9 25 -19z m-2024 -35 c8 -15 8 -19 0 -14
-14 9 -14 -6 -1 -22 6 -8 5 -8 -4 0 -18 16 -34 74 -18 64 7 -4 17 -16 23 -28z
m1484 -68 c-27 -12 -43 -12 -25 0 8 5 22 9 30 9 10 0 8 -3 -5 -9z m-1480 -110
c3 -6 -1 -7 -9 -4 -18 7 -21 14 -7 14 6 0 13 -4 16 -10z m1951 -325 c12 -11
65 -44 118 -73 101 -56 131 -80 46 -37 -28 14 -55 23 -60 20 -6 -3 -18 -1 -27
5 -15 9 -14 10 7 6 26 -6 -26 21 -123 64 -31 14 -57 29 -57 33 0 5 -5 5 -11 1
-6 -3 12 -19 42 -37 29 -16 60 -36 67 -44 8 -8 21 -12 29 -9 8 3 12 2 9 -2 -3
-5 20 -21 50 -36 71 -36 63 -44 -12 -12 -83 34 -274 147 -274 160 0 2 14 2 32
0 34 -4 72 21 61 40 -8 11 65 -44 103 -79z m-2682 -84 c3 -5 -1 -14 -9 -21
-13 -10 -15 -9 -15 9 0 21 14 28 24 12z m-1234 -21 c0 -5 -2 -10 -4 -10 -3 0
-8 5 -11 10 -3 6 -1 10 4 10 6 0 11 -4 11 -10z m1247 -62 c-2 -13 -4 -3 -4 22
0 25 2 35 4 23 2 -13 2 -33 0 -45z m-1243 33 c4 -5 -3 -7 -14 -4 -23 6 -26 13
-6 13 8 0 17 -4 20 -9z m193 -7 c-3 -3 -12 -4 -19 -1 -8 3 -5 6 6 6 11 1 17
-2 13 -5z m890 -44 c2 -13 1 -21 -3 -17 -4 3 -14 -3 -24 -15 -11 -15 -19 -18
-24 -10 -4 7 -1 12 9 12 11 0 15 5 11 16 -4 9 -2 13 5 8 8 -4 9 1 4 16 -5 16
-3 21 6 18 6 -2 14 -15 16 -28z m-654 -34 c-3 -4 -9 -2 -14 5 -13 22 -11 31 5
17 8 -7 12 -17 9 -22z m75 -9 c-7 -7 -29 -14 -47 -15 -42 -3 -35 7 11 18 48
12 51 11 36 -3z m332 -22 c0 -7 -30 -13 -34 -7 -3 4 4 9 15 9 10 1 19 0 19 -2z
m-1490 -39 c0 -9 -10 -13 -32 -11 -51 4 -54 6 -33 15 31 13 65 12 65 -4z m-73
-22 c-3 -3 -12 -4 -19 -1 -8 3 -5 6 6 6 11 1 17 -2 13 -5z m5603 -126 c0 -3
-13 6 -30 20 -16 15 -30 30 -30 35 0 5 14 -4 30 -20 17 -15 30 -31 30 -35z
m-3470 37 c11 -13 10 -14 -4 -9 -9 3 -16 10 -16 15 0 13 6 11 20 -6z m3300
-16 c3 -3 39 -34 80 -70 41 -35 93 -80 115 -100 22 -21 54 -48 70 -60 56 -43
270 -234 345 -308 41 -41 53 -54 25 -30 -27 25 -63 56 -79 69 -16 14 -66 57
-110 96 -45 39 -92 80 -106 91 -116 97 -380 333 -380 341 0 4 30 -17 40 -29z
m823 -738 c-4 -5 -127 111 -132 124 -2 6 27 -19 65 -55 38 -36 68 -67 67 -69z
m302 9 c3 -5 1 -10 -4 -10 -6 0 -11 5 -11 10 0 6 2 10 4 10 3 0 8 -4 11 -10z
m-9222 -53 c5 -33 4 -37 -9 -26 -12 10 -13 25 -5 68 2 11 9 -8 14 -42z m6917
28 c0 -12 -19 -12 -23 0 -4 9 -1 12 9 8 7 -3 14 -7 14 -8z m2050 -20 c13 -14
21 -25 18 -25 -2 0 -15 11 -28 25 -13 14 -21 25 -18 25 2 0 15 -11 28 -25z
m-9000 11 c0 -2 -8 -10 -17 -17 -16 -13 -17 -12 -4 4 13 16 21 21 21 13z
m-153 -28 c-3 -8 -6 -5 -6 6 -1 11 2 17 5 13 3 -3 4 -12 1 -19z m7164 -11 c24
-19 63 -46 86 -60 83 -52 361 -318 455 -434 31 -39 75 -84 97 -100 22 -15 50
-45 63 -66 13 -21 40 -60 61 -86 20 -27 37 -54 37 -60 0 -6 5 -11 10 -11 6 0
10 -5 10 -11 0 -5 -4 -7 -10 -4 -5 3 -10 -1 -10 -10 0 -9 4 -14 8 -11 13 8 32
-9 37 -33 3 -17 0 -21 -10 -17 -9 3 -12 0 -8 -9 3 -8 8 -13 12 -11 3 2 6 -6 6
-19 0 -13 -3 -21 -8 -18 -4 2 2 -12 13 -32 22 -39 25 -49 11 -41 -13 8 -42 -4
-35 -15 3 -5 0 -9 -6 -9 -6 0 -8 -5 -5 -10 4 -6 11 -8 16 -5 5 4 9 0 9 -7 0
-9 -20 -13 -73 -14 -43 -1 -62 2 -47 6 14 4 24 12 23 18 -4 15 10 15 24 1 7
-7 13 -7 17 -1 11 19 -34 24 -60 7 -13 -9 -30 -13 -36 -9 -6 4 -8 3 -5 -3 4
-6 0 -16 -8 -23 -13 -11 -14 -10 -10 2 3 8 1 26 -4 40 -7 18 -6 29 2 38 8 7
-2 6 -25 -4 -21 -8 -38 -12 -38 -9 0 3 -6 0 -13 -6 -14 -11 -27 -5 -27 13 0 6
4 5 9 -3 7 -10 12 -8 24 9 8 12 20 19 25 16 6 -3 12 -3 14 2 5 12 77 52 94 52
12 0 12 -3 2 -20 -7 -11 -21 -20 -30 -20 -10 0 -18 -7 -18 -15 0 -18 31 -20
48 -3 9 9 12 9 12 0 0 -6 7 -9 15 -6 8 4 12 10 9 15 -3 5 0 9 7 9 8 0 8 5 -2
16 -11 14 -10 18 6 30 10 8 14 14 9 14 -6 0 -15 -5 -20 -10 -8 -8 -15 -6 -25
6 -12 16 -12 17 1 9 13 -8 13 -6 2 8 -8 9 -11 21 -7 27 4 6 -1 20 -11 31 -13
15 -19 16 -26 7 -6 -10 -8 -10 -8 0 0 6 -7 12 -15 12 -8 0 -15 5 -15 11 0 5
-5 7 -10 4 -6 -4 -29 -4 -51 0 -28 5 -39 11 -35 20 3 10 0 12 -12 8 -15 -6
-15 -5 -3 10 7 9 9 17 4 17 -5 0 -16 11 -23 25 -7 14 -21 25 -31 25 -12 0 -16
5 -13 14 8 21 -24 47 -51 40 -15 -4 -26 0 -32 9 -5 10 -14 12 -28 6 -19 -7
-19 -8 3 -8 12 -1 22 -6 22 -11 0 -15 -43 -29 -56 -19 -5 4 -19 6 -30 3 -13
-3 -27 3 -39 17 -17 19 -17 21 -3 16 9 -3 22 1 28 9 7 8 18 14 24 14 6 0 4 -5
-4 -10 -12 -8 -11 -10 8 -10 27 0 28 7 5 33 -17 18 -17 19 22 13 29 -5 34 -4
20 3 -11 5 -32 10 -47 10 -16 1 -28 6 -28 12 0 6 13 9 33 6 37 -5 66 11 59 32
-4 11 -6 11 -13 0 -7 -11 -9 -9 -10 6 -1 11 -1 25 0 30 2 20 -52 43 -81 35
-28 -8 -38 -4 -38 14 0 6 5 4 10 -4 9 -13 10 -13 11 0 1 8 0 22 -1 30 -1 12 1
11 12 -2 10 -13 17 -15 28 -7 13 9 12 10 -2 5 -14 -4 -17 0 -15 17 1 13 -3 21
-10 19 -8 -1 -13 8 -13 23 0 20 -5 25 -25 25 -17 0 -25 6 -25 18 0 13 -2 14
-9 3 -6 -9 -11 -10 -15 -2 -4 6 3 15 16 20 22 9 22 10 -7 12 -16 1 -33 1 -37
0 -5 0 -8 9 -8 22 0 17 -2 19 -9 8 -5 -8 -16 -16 -25 -17 -17 -2 -30 22 -15
31 14 9 -1 27 -17 21 -7 -3 -16 -1 -19 4 -4 6 1 10 10 10 9 0 13 5 10 11 -4 6
-13 8 -21 5 -8 -3 -14 1 -14 9 0 8 -5 15 -11 15 -5 0 -7 5 -4 10 3 6 2 10 -2
10 -5 0 -14 10 -22 23 -13 20 -13 21 2 8 35 -28 9 26 -35 73 -10 11 -18 25
-18 32 0 6 -7 17 -15 24 -16 14 -20 30 -6 30 4 0 28 -15 52 -33z m-6931 13 c0
-5 -5 -10 -11 -10 -5 0 -7 5 -4 10 3 6 8 10 11 10 2 0 4 -4 4 -10z m480 -9 c0
-5 -7 -12 -16 -15 -14 -5 -15 -4 -4 9 14 17 20 19 20 6z m-464 -48 c-11 -11
-17 4 -9 23 7 18 8 18 11 1 2 -10 1 -21 -2 -24z m-386 -5 c-19 -20 -20 -21
-14 -3 8 20 25 37 32 30 2 -2 -6 -14 -18 -27z m220 -4 c0 -8 -5 -12 -10 -9 -6
4 -8 11 -5 16 9 14 15 11 15 -7z m677 -7 c9 -19 8 -23 -7 -23 -10 0 -17 3 -14
7 2 4 -6 10 -19 13 -21 7 -21 7 -2 16 29 13 31 12 42 -13z m-147 9 c0 -2 -9
-6 -20 -9 -11 -3 -18 -1 -14 4 5 9 34 13 34 5z m-727 -26 c-7 -26 -19 -34 -29
-19 -5 8 -3 9 6 4 10 -6 12 -4 7 7 -6 16 0 28 14 28 4 0 5 -9 2 -20z m557 5
c7 -8 17 -12 24 -8 6 3 5 0 -2 -8 -11 -11 -14 -12 -21 -1 -5 8 -12 13 -17 12
-5 -1 -10 3 -12 9 -5 16 14 13 28 -4z m-616 -10 c-4 -8 -10 -12 -15 -9 -14 8
-10 24 6 24 9 0 12 -6 9 -15z m603 -41 c-3 -3 -12 -4 -19 -1 -8 3 -5 6 6 6 11
1 17 -2 13 -5z m-57 -48 c0 -21 -21 -31 -31 -15 -14 22 -11 29 11 29 11 0 20
-6 20 -14z m9300 -37 c15 -27 9 -32 -24 -20 -26 10 -32 21 -19 34 13 13 32 7
43 -14z m-167 -3 c24 -19 21 -35 -5 -29 -48 10 -50 12 -36 27 16 19 19 19 41
2z m254 -117 c7 -13 8 -25 3 -27 -13 -5 -50 17 -50 29 0 6 5 7 12 3 8 -5 9 -2
5 10 -11 27 16 14 30 -15z m-95 -64 c7 -32 -22 -42 -57 -19 -34 22 -25 29 14
10 27 -14 30 -14 25 -1 -4 8 -14 15 -24 15 -10 0 -23 6 -29 14 -10 12 -7 15
16 18 35 4 49 -5 55 -37z m-2282 -16 c0 -6 -4 -7 -10 -4 -5 3 -10 11 -10 16 0
6 5 7 10 4 6 -3 10 -11 10 -16z m120 -97 c3 -3 -5 -1 -17 2 -14 5 -23 3 -23
-3 0 -6 -5 -11 -10 -11 -6 0 -5 8 2 19 12 20 15 19 48 -7z m2158 12 c6 -2 12
-8 12 -14 0 -6 -15 -8 -42 -4 -50 8 -52 9 -43 23 5 10 32 8 73 -5z m-2040
-264 c7 -11 9 -20 4 -20 -10 0 -32 22 -32 32 0 15 15 8 28 -12z m72 -20 c0 -6
-10 -15 -22 -21 -22 -9 -22 -9 -1 -5 18 3 21 0 18 -23 -2 -18 -8 -25 -20 -23
-10 2 -14 -1 -10 -7 3 -6 -1 -11 -10 -11 -9 0 -13 -4 -10 -10 7 -11 7 -11 -47
-14 -21 -2 -38 -1 -38 2 0 11 43 41 51 36 8 -5 10 0 13 34 2 28 76 68 76 42z
m-80 -50 c0 -5 -2 -10 -4 -10 -2 0 -12 -3 -20 -6 -12 -5 -15 -2 -10 10 7 17
34 22 34 6z m457 -214 c-4 -10 -1 -13 9 -9 10 3 12 0 8 -10 -3 -8 -16 -18 -29
-21 -16 -4 -22 -11 -19 -21 4 -8 10 -12 15 -9 5 3 9 0 9 -6 0 -8 6 -8 20 0 19
10 20 9 9 -8 -12 -19 -14 -19 -36 -5 -18 12 -29 13 -46 6 -16 -8 -26 -7 -35 3
-10 12 -9 13 9 11 26 -2 43 39 25 62 -9 12 -8 13 6 8 10 -3 20 -2 23 3 10 16
38 12 32 -4z m-77 -116 c0 -5 -7 -7 -15 -4 -8 4 -15 8 -15 10 0 2 7 4 15 4 8
0 15 -4 15 -10z"/>
<path d="M4758 6003 c7 -3 16 -2 19 1 4 3 -2 6 -13 5 -11 0 -14 -3 -6 -6z"/>
<path d="M5387 5723 c-12 -11 -8 -19 12 -20 14 -1 18 3 14 13 -6 15 -16 18
-26 7z"/>
<path d="M5060 5700 c0 -5 5 -10 11 -10 5 0 7 5 4 10 -3 6 -8 10 -11 10 -2 0
-4 -4 -4 -10z"/>
<path d="M5316 5681 c5 -5 20 -12 34 -15 24 -7 24 -6 6 8 -21 17 -57 23 -40 7z"/>
<path d="M5080 5585 c0 -2 10 -10 23 -16 20 -11 21 -11 8 4 -13 16 -31 23 -31
12z"/>
<path d="M4750 5610 c0 -5 5 -10 11 -10 5 0 7 5 4 10 -3 6 -8 10 -11 10 -2 0
-4 -4 -4 -10z"/>
<path d="M4194 5504 c-1 -13 1 -24 5 -24 9 0 12 38 3 44 -4 2 -8 -7 -8 -20z"/>
<path d="M4562 5510 c0 -14 2 -19 5 -12 2 6 2 18 0 25 -3 6 -5 1 -5 -13z"/>
<path d="M4310 5455 c0 -8 4 -15 10 -15 5 0 7 7 4 15 -4 8 -8 15 -10 15 -2 0
-4 -7 -4 -15z"/>
<path d="M4346 5434 c-4 -9 -4 -19 -1 -22 3 -3 5 0 5 7 0 7 4 9 10 6 6 -3 7 1
4 9 -8 20 -10 20 -18 0z"/>
<path d="M6340 4692 c0 -12 19 -26 26 -19 2 2 -2 10 -11 17 -9 8 -15 8 -15 2z"/>
<path d="M6217 4365 c3 -8 9 -12 14 -9 12 7 11 11 -5 17 -10 4 -13 1 -9 -8z"/>
<path d="M5956 4119 c3 -5 12 -9 21 -9 19 0 9 13 -12 16 -8 1 -13 -2 -9 -7z"/>
<path d="M7185 3845 c10 -16 27 -39 38 -50 19 -20 19 -20 8 0 -6 11 -23 34
-37 50 l-27 30 18 -30z"/>
<path d="M7276 3717 c3 -10 9 -15 12 -12 3 3 0 11 -7 18 -10 9 -11 8 -5 -6z"/>
<path d="M7300 3673 c1 -10 36 -53 44 -53 3 0 -3 13 -12 30 -16 28 -32 40 -32
23z"/>
<path d="M5380 4086 c0 -8 5 -18 10 -21 6 -3 10 1 10 9 0 8 -4 18 -10 21 -5 3
-10 -1 -10 -9z"/>
<path d="M7100 3750 c0 -5 5 -10 10 -10 6 0 10 5 10 10 0 6 -4 10 -10 10 -5 0
-10 -4 -10 -10z"/>
<path d="M4725 3660 c3 -5 8 -10 11 -10 2 0 4 5 4 10 0 6 -5 10 -11 10 -5 0
-7 -4 -4 -10z"/>
<path d="M5505 3239 c-4 -6 -4 -13 -1 -16 3 -4 6 -1 6 6 0 7 5 9 12 5 7 -4 8
-3 4 4 -9 15 -13 15 -21 1z"/>
<path d="M8177 264 c6 -15 23 -19 23 -5 0 5 -7 11 -14 14 -10 4 -13 1 -9 -9z"/>
<path d="M8160 180 c0 -5 5 -10 11 -10 5 0 7 5 4 10 -3 6 -8 10 -11 10 -2 0
-4 -4 -4 -10z"/>
<path d="M3726 2506 c3 -8 13 -17 22 -21 13 -5 13 -2 -3 15 -21 24 -26 25 -19
6z"/>
<path d="M3339 2487 c26 -28 31 -32 31 -19 0 4 -13 16 -28 26 l-27 19 24 -26z"/>
<path d="M4112 2482 c-33 -5 -26 -46 8 -50 34 -5 51 -22 21 -22 -12 0 -19 -4
-16 -10 9 -14 34 -13 49 3 17 17 27 47 16 47 -5 0 -7 6 -4 14 6 15 -32 24 -74
18z"/>
<path d="M3521 2430 c0 -8 4 -22 9 -30 12 -18 12 -2 0 25 -6 13 -9 15 -9 5z"/>
<path d="M3424 2415 c-16 -12 -17 -14 -3 -15 9 0 19 7 23 15 7 19 5 19 -20 0z"/>
<path d="M3490 2390 c0 -6 -4 -9 -9 -6 -20 13 -31 -20 -20 -60 14 -51 23 -59
43 -39 9 9 16 12 16 6 0 -6 4 -11 9 -11 5 0 7 9 4 20 -3 12 -8 18 -11 15 -3
-3 -12 9 -19 27 -10 23 -10 33 -2 39 8 5 8 8 0 13 -6 4 -11 2 -11 -4z"/>
<path d="M3530 2370 c-9 -6 -10 -10 -3 -10 7 0 10 -7 7 -17 -5 -17 -5 -17 6 0
15 24 9 39 -10 27z"/>
<path d="M3265 2350 c-3 -5 1 -10 9 -10 9 0 16 5 16 10 0 6 -4 10 -9 10 -6 0
-13 -4 -16 -10z"/>
<path d="M3881 2317 c-13 -21 -12 -21 5 -5 10 10 16 20 13 22 -3 3 -11 -5 -18
-17z"/>
<path d="M3697 2304 c6 -15 23 -19 23 -5 0 5 -7 11 -14 14 -10 4 -13 1 -9 -9z"/>
<path d="M4340 2313 c0 -4 5 -15 10 -23 8 -13 10 -13 10 2 0 9 -4 20 -10 23
-5 3 -10 3 -10 -2z"/>
<path d="M4146 2282 c-7 -12 6 -27 27 -30 17 -3 17 -2 0 17 -20 24 -20 24 -27
13z"/>
<path d="M4575 2270 c-3 -5 -1 -10 4 -10 6 0 11 5 11 10 0 6 -2 10 -4 10 -3 0
-8 -4 -11 -10z"/>
<path d="M2730 2136 c0 -2 7 -9 15 -16 9 -7 15 -8 15 -2 0 5 -7 12 -15 16 -8
3 -15 4 -15 2z"/>
<path d="M1660 2110 c0 -5 5 -10 11 -10 5 0 7 5 4 10 -3 6 -8 10 -11 10 -2 0
-4 -4 -4 -10z"/>
<path d="M2390 2055 c0 -8 2 -15 4 -15 2 0 6 7 10 15 3 8 1 15 -4 15 -6 0 -10
-7 -10 -15z"/>
<path d="M1940 2051 c0 -5 5 -13 10 -16 6 -3 10 -2 10 4 0 5 -4 13 -10 16 -5
3 -10 2 -10 -4z"/>
<path d="M2070 1930 c0 -6 7 -10 15 -10 8 0 15 2 15 4 0 2 -7 6 -15 10 -8 3
-15 1 -15 -4z"/>
<path d="M1440 1570 c0 -5 5 -10 11 -10 5 0 7 5 4 10 -3 6 -8 10 -11 10 -2 0
-4 -4 -4 -10z"/>
<path d="M870 1510 c0 -5 5 -10 11 -10 5 0 7 5 4 10 -3 6 -8 10 -11 10 -2 0
-4 -4 -4 -10z"/>
<path d="M877 1460 c-26 -16 -32 -16 -55 -4 -42 22 -48 17 -16 -14 24 -23 29
-35 29 -75 0 -36 -5 -51 -17 -58 -12 -7 -18 -21 -17 -42 2 -27 2 -28 6 -7 3
14 13 33 24 43 19 18 69 24 69 7 0 -5 -9 -10 -20 -10 -11 0 -20 -5 -20 -10 0
-6 11 -8 28 -3 15 3 35 6 45 5 23 -1 22 11 -3 33 -12 10 -18 25 -15 33 3 8 0
21 -7 29 -9 11 -9 16 2 23 15 9 33 -7 24 -21 -2 -4 4 -10 13 -14 10 -3 19 -1
21 4 2 6 17 -3 34 -19 16 -17 36 -30 44 -30 8 0 14 -4 14 -10 0 -5 5 -10 10
-10 6 0 10 7 10 15 0 8 -6 15 -14 15 -8 0 -28 12 -44 28 -71 64 -88 78 -105
85 -10 4 -15 11 -12 17 8 13 6 12 -28 -10z m16 -45 c-21 -15 -34 -10 -27 9 3
8 14 12 25 9 18 -5 18 -6 2 -18z"/>
<path d="M715 1430 c-8 -13 14 -35 44 -45 20 -6 23 -4 18 10 -4 9 -7 23 -7 31
0 16 -45 20 -55 4z"/>
<path d="M640 1430 c-8 -26 -7 -41 2 -32 6 6 8 16 5 24 -3 7 -6 11 -7 8z"/>
<path d="M800 1390 c0 -5 5 -10 11 -10 5 0 7 5 4 10 -3 6 -8 10 -11 10 -2 0
-4 -4 -4 -10z"/>
<path d="M920 1356 c0 -2 7 -7 16 -10 8 -3 12 -2 9 4 -6 10 -25 14 -25 6z"/>
<path d="M984 1307 c3 -11 9 -30 12 -43 3 -13 13 -24 21 -24 8 0 12 -4 9 -9
-3 -5 1 -11 9 -15 25 -9 17 12 -22 62 -20 26 -33 39 -29 29z"/>
<path d="M240 1301 c0 -6 -7 -11 -15 -11 -8 0 -15 -4 -15 -9 0 -15 18 -23 25
-11 4 6 11 8 16 5 5 -4 9 1 9 9 0 8 -4 18 -10 21 -5 3 -10 1 -10 -4z"/>
<path d="M611 1264 c0 -11 3 -14 6 -6 3 7 2 16 -1 19 -3 4 -6 -2 -5 -13z"/>
<path d="M930 1260 c-9 -6 -10 -10 -3 -10 6 0 15 5 18 10 8 12 4 12 -15 0z"/>
<path d="M826 1245 c-3 -9 0 -15 9 -15 8 0 15 7 15 15 0 8 -4 15 -9 15 -5 0
-11 -7 -15 -15z"/>
</g>
</svg>
