<?xml version="1.0" standalone="no"?>
<!DOCTYPE svg PUBLIC "-//W3C//DTD SVG 20010904//EN"
 "http://www.w3.org/TR/2001/REC-SVG-20010904/DTD/svg10.dtd">
<svg version="1.0" xmlns="http://www.w3.org/2000/svg"
 width="400.000000pt" height="473.000000pt" viewBox="0 0 400.000000 473.000000"
 preserveAspectRatio="xMidYMid meet">

<g transform="translate(0.000000,473.000000) scale(0.100000,-0.100000)"
fill="#000000" stroke="none">
<path d="M0 2365 l0 -2365 2000 0 2000 0 0 2365 0 2365 -2000 0 -2000 0 0
-2365z m2645 1829 c27 -12 34 -19 23 -21 -9 -3 -18 -14 -20 -26 -3 -20 -11
-23 -95 -31 -51 -4 -93 -12 -93 -17 0 -5 -9 -9 -19 -9 -11 0 -23 -5 -26 -10
-4 -6 -10 -8 -14 -5 -14 8 -54 -43 -47 -61 5 -12 13 -15 34 -9 48 13 115 9
127 -9 7 -8 15 -13 18 -9 4 3 7 -1 7 -10 0 -9 -11 -19 -25 -23 -14 -3 -25 -10
-25 -14 0 -5 -13 -23 -30 -41 -26 -29 -28 -35 -15 -49 8 -9 15 -22 15 -28 0
-7 4 -12 9 -12 5 0 9 -15 9 -34 0 -18 5 -42 10 -53 18 -34 74 -88 88 -85 8 2
10 -5 7 -18 -3 -11 -8 -20 -12 -20 -4 0 -7 -8 -7 -17 0 -10 -4 -35 -8 -56 -7
-36 -6 -38 24 -43 16 -4 30 -13 30 -20 0 -8 9 -14 20 -14 13 0 18 -5 14 -15
-5 -11 -10 -12 -25 -2 -10 6 -19 17 -19 24 0 15 -26 17 -35 3 -3 -5 -1 -10 4
-10 6 0 11 -13 11 -30 0 -16 5 -31 10 -31 20 -3 25 -4 38 -12 8 -6 12 -2 12
13 0 12 5 18 10 15 16 -10 12 -45 -6 -45 -13 0 -15 -7 -9 -37 4 -21 7 -74 7
-118 1 -45 4 -69 7 -55 5 17 9 21 15 12 4 -7 12 -10 17 -7 16 11 10 -45 -11
-87 -11 -23 -20 -61 -20 -85 0 -32 -4 -43 -15 -43 -17 0 -17 2 -15 -151 1 -92
-2 -119 -14 -131 -16 -17 -28 -56 -30 -96 -1 -14 -6 -27 -13 -29 -9 -3 -11 27
-10 119 1 74 -2 124 -8 126 -5 2 -23 -31 -40 -73 -24 -63 -31 -72 -33 -50 -2
15 3 34 11 43 8 10 17 31 21 47 4 17 17 56 29 87 21 57 21 57 33 30 l12 -27 1
31 c1 38 -23 42 -46 7 -16 -24 -36 -23 -27 1 3 8 1 17 -4 20 -5 3 -24 -23 -43
-59 -32 -63 -32 -65 -14 -84 15 -17 15 -23 5 -36 -8 -9 -10 -29 -7 -51 4 -25
2 -41 -9 -51 -8 -9 -17 -13 -20 -11 -2 3 -5 74 -7 159 -1 85 -3 144 -5 132 -2
-13 -7 -23 -12 -23 -12 0 1 42 20 65 10 11 21 38 25 60 3 22 16 51 28 64 l22
24 -23 -12 c-12 -7 -28 -11 -35 -10 -28 3 -37 -2 -37 -24 0 -13 -14 -42 -31
-65 -17 -23 -34 -54 -38 -68 -7 -26 -8 -26 -25 -9 -14 15 -19 16 -26 5 -7 -11
-11 -11 -24 -1 -13 11 -17 9 -27 -13 -7 -14 -18 -26 -25 -26 -7 0 -17 -7 -22
-16 -7 -13 -11 -9 -16 19 -5 29 -3 40 14 57 11 11 20 28 20 38 0 11 9 27 21
38 11 10 25 26 30 35 14 27 -29 11 -79 -29 -35 -29 -44 -32 -58 -22 -22 19
-58 -20 -89 -96 -21 -50 -26 -56 -31 -36 -10 33 -19 27 -42 -28 -16 -38 -25
-48 -37 -44 -10 4 -15 14 -12 24 2 10 1 24 -4 31 -7 11 -9 11 -9 -3 0 -9 -6
-18 -12 -21 -10 -3 -10 -7 0 -20 15 -17 7 -41 -9 -31 -17 10 -60 -26 -75 -62
-8 -19 -19 -34 -24 -34 -6 0 -9 -3 -8 -7 0 -5 -1 -15 -5 -23 -3 -8 -7 -22 -10
-30 -3 -9 -7 -3 -11 15 -4 17 -11 39 -16 50 -7 18 -9 18 -20 -10 -7 -16 -20
-47 -29 -67 -16 -37 -41 -52 -41 -24 0 7 -7 27 -15 42 -8 16 -15 23 -15 16 0
-7 -9 -22 -20 -34 -10 -12 -18 -24 -15 -27 2 -4 0 -13 -6 -21 -7 -13 -9 -13
-10 0 -1 18 -6 46 -14 77 l-5 23 -30 -30 c-17 -17 -30 -37 -30 -44 0 -8 -7
-19 -15 -26 -13 -11 -14 -10 -10 3 4 8 2 18 -3 21 -5 3 -12 -8 -16 -24 -3 -17
-10 -30 -17 -30 -12 0 -8 113 6 145 8 18 7 18 -8 7 -9 -8 -21 -11 -27 -7 -5 3
-10 0 -10 -9 0 -8 -6 -17 -12 -19 -8 -3 -6 -6 5 -6 21 -1 22 3 -8 -59 -25 -52
-42 -70 -30 -32 5 15 2 20 -14 20 -11 0 -25 -8 -30 -17 -10 -17 -10 -17 -11
-1 0 26 -29 11 -36 -19 -9 -36 -24 -9 -24 44 0 23 -4 45 -10 48 -5 3 -10 1
-10 -4 0 -6 -5 -11 -11 -11 -5 0 -7 5 -4 10 3 6 4 10 1 10 -3 0 -12 -15 -20
-32 -13 -30 -14 -31 -13 -8 0 14 4 30 7 35 4 6 17 43 30 83 21 66 28 77 75
113 56 42 70 64 80 121 l6 36 61 -6 c53 -4 61 -3 55 11 -6 17 19 32 28 17 4
-6 0 -10 -7 -11 -10 0 -11 -2 0 -6 10 -4 10 -8 1 -19 -15 -19 -4 -18 42 4 40
18 55 49 19 37 -13 -4 -22 -1 -26 9 -3 9 -10 16 -16 16 -12 0 -38 26 -38 37 0
8 34 32 130 91 121 75 157 96 205 120 27 13 54 30 60 37 22 27 147 82 230 102
33 7 78 18 100 23 63 15 181 12 222 -5 36 -15 52 -9 53 18 0 11 -40 89 -55
107 -14 16 -97 167 -115 209 -6 14 -16 60 -22 104 -9 67 -8 89 7 143 48 178
221 268 380 198z m50 -85 c-7 -20 -8 -21 -17 -5 -5 9 -7 24 -4 33 10 26 29 -1
21 -28z m380 6 c-38 -15 -125 -27 -104 -14 10 6 6 9 -16 9 -67 1 -1 16 72 16
71 1 75 0 48 -11z m-235 -39 c0 -3 -4 -8 -10 -11 -5 -3 -10 -1 -10 4 0 6 5 11
10 11 6 0 10 -2 10 -4z m-93 -12 c-3 -3 -12 -4 -19 -1 -8 3 -5 6 6 6 11 1 17
-2 13 -5z m-137 -532 c0 -13 -12 -22 -22 -16 -10 6 -1 24 13 24 5 0 9 -4 9 -8z
m70 -17 c7 -9 20 -13 29 -10 13 5 14 4 3 -7 -10 -10 -18 -9 -41 5 -15 9 -31
14 -35 10 -3 -3 -6 -1 -6 5 0 17 35 15 50 -3z m25 -205 c3 -5 1 -10 -4 -10 -6
0 -11 5 -11 10 0 6 2 10 4 10 3 0 8 -4 11 -10z m-357 -467 c-18 -3 -28 -11
-30 -25 -4 -31 -28 -35 -28 -5 0 28 12 36 55 35 29 -1 29 -1 3 -5z m-138 -38
c0 -8 -4 -15 -10 -15 -5 0 -10 7 -10 15 0 8 5 15 10 15 6 0 10 -7 10 -15z
m259 -355 c-7 -16 -17 -26 -21 -24 -4 3 -10 -8 -14 -23 -16 -73 -21 -72 -16 2
3 44 9 82 13 83 5 2 9 10 9 18 0 8 7 14 15 14 8 0 16 6 17 13 0 6 3 -3 5 -21
2 -18 -1 -46 -8 -62z m-429 -15 c0 -9 -6 -18 -14 -21 -8 -3 -11 -15 -8 -30 2
-14 0 -24 -7 -24 -6 0 -11 -9 -11 -21 0 -11 5 -17 10 -14 29 18 -3 -91 -34
-117 -24 -19 -42 -8 -31 19 4 10 10 26 12 36 1 10 10 31 18 47 8 16 15 36 15
44 0 22 33 96 42 96 5 0 8 -7 8 -15z m414 -40 c-4 -8 -8 -15 -10 -15 -2 0 -4
7 -4 15 0 8 4 15 10 15 5 0 7 -7 4 -15z"/>
<path d="M2342 3858 c-15 -15 -16 -45 -1 -53 14 -9 18 -4 25 33 7 33 -3 41
-24 20z"/>
<path d="M2536 3365 c-19 -30 -20 -45 -3 -45 21 0 57 39 51 55 -9 22 -30 18
-48 -10z"/>
<path d="M2598 3240 c-7 -24 -3 -38 8 -28 3 4 4 17 2 30 l-3 23 -7 -25z"/>
<path d="M2350 3149 c0 -5 5 -7 10 -4 6 3 10 8 10 11 0 2 -4 4 -10 4 -5 0 -10
-5 -10 -11z"/>
<path d="M2549 3108 c-7 -17 -14 -40 -14 -50 -1 -10 -9 -26 -17 -35 -17 -20
-32 -97 -17 -88 5 4 9 12 9 20 0 7 11 26 24 42 16 19 25 46 29 86 3 31 4 57 2
57 -1 0 -9 -14 -16 -32z"/>
<path d="M2475 3119 c-4 -6 -5 -12 -2 -15 2 -3 7 2 10 11 7 17 1 20 -8 4z"/>
<path d="M2110 3055 c0 -9 6 -12 15 -9 8 4 12 10 9 15 -8 14 -24 10 -24 -6z"/>
<path d="M2012 3038 c-19 -24 -62 -111 -57 -116 7 -7 34 30 35 47 0 10 8 12
30 8 34 -7 38 5 16 47 -10 20 -16 23 -24 14z"/>
<path d="M1810 2991 c0 -15 -4 -19 -17 -14 -16 6 -16 5 0 -12 16 -15 20 -16
28 -4 12 19 11 36 -1 44 -5 3 -10 -3 -10 -14z"/>
<path d="M1480 2867 l-23 -32 29 27 c15 15 26 30 23 33 -3 2 -16 -10 -29 -28z"/>
<path d="M1835 2859 c-4 -6 -5 -12 -2 -15 2 -3 7 2 10 11 7 17 1 20 -8 4z"/>
<path d="M1715 2840 c-3 -5 -2 -10 4 -10 5 0 13 5 16 10 3 6 2 10 -4 10 -5 0
-13 -4 -16 -10z"/>
<path d="M1661 2816 c-16 -19 -11 -29 8 -17 7 5 12 14 9 21 -3 9 -8 7 -17 -4z"/>
<path d="M1516 2761 c-4 -7 -5 -15 -2 -18 9 -9 19 4 14 18 -4 11 -6 11 -12 0z"/>
<path d="M2450 2481 c0 -6 5 -13 10 -16 6 -3 10 1 10 9 0 9 -4 16 -10 16 -5 0
-10 -4 -10 -9z"/>
</g>
</svg>
